<svg width="25" height="24" viewBox="0 0 25 24" fill="none" xmlns="http://www.w3.org/2000/svg">
<path d="M21.1429 5.33333H18.7857V4.5C18.7857 3.11979 17.7299 2 16.4286 2H8.57143C7.27008 2 6.21429 3.11979 6.21429 4.5V5.33333H3.85714C2.5558 5.33333 1.5 6.45312 1.5 7.83333V19.5C1.5 20.8802 2.5558 22 3.85714 22H21.1429C22.4442 22 23.5 20.8802 23.5 19.5V7.83333C23.5 6.45312 22.4442 5.33333 21.1429 5.33333ZM7.78571 4.5C7.78571 4.03957 8.13731 3.66667 8.57143 3.66667H16.4286C16.6368 3.66667 16.8371 3.75417 16.9845 3.91042C17.1318 4.06667 17.2143 4.27916 17.2143 4.49999V5.33332H7.7857L7.78571 4.5ZM3.85714 7H21.1429C21.3511 7 21.5514 7.0875 21.6987 7.24375C21.8461 7.4 21.9286 7.6125 21.9286 7.83332V11.1667H3.07142V7.83332C3.07142 7.3729 3.42303 7 3.85714 7ZM14.8571 14.5H10.1429V12.8333H14.8571V14.5ZM21.1429 20.3333H3.85714C3.42303 20.3333 3.07143 19.9604 3.07143 19.5V12.8333H8.57143V14.5C8.57143 14.9417 8.73741 15.3656 9.03205 15.6781C9.32668 15.9906 9.72642 16.1667 10.1429 16.1667H14.8571C15.2736 16.1667 15.6733 15.9906 15.968 15.6781C16.2626 15.3656 16.4286 14.9417 16.4286 14.5V12.8333H21.9286V19.5C21.9286 19.7208 21.8461 19.9333 21.6987 20.0896C21.5514 20.2458 21.3511 20.3333 21.1429 20.3333Z" fill="#FF782E"></path>
</svg>