<svg width="25" height="24" viewBox="0 0 25 24" fill="none" xmlns="http://www.w3.org/2000/svg">
<path fill-rule="evenodd" clip-rule="evenodd" d="M11.2433 3.51701L11.0254 4.96995C10.9523 5.4571 10.6612 5.8844 10.2346 6.1307L8.10521 7.36008C7.6786 7.60639 7.163 7.64484 6.70457 7.46455L5.33733 6.92682L4.2322 8.84095L5.38152 9.75616C5.76686 10.0631 5.99137 10.5287 5.99137 11.0213V13.4801C5.99137 13.9728 5.76686 14.4385 5.3815 14.7454L4.2322 15.6606L5.33733 17.5748L6.70457 17.037C7.163 16.8567 7.6786 16.8952 8.10521 17.1414L10.2346 18.3709C10.6612 18.6171 10.9523 19.0445 11.0254 19.5317L11.2433 20.9846H13.4535L13.6716 19.5317C13.7445 19.0445 14.0357 18.6171 14.4623 18.3709L16.5916 17.1414C17.0182 16.8952 17.5338 16.8567 17.9923 17.037L19.3595 17.5748L20.4646 15.6606L19.3154 14.7454C18.9301 14.4385 18.7055 13.9728 18.7055 13.4801V11.0213C18.7055 10.5287 18.93 10.0631 19.3154 9.75616L20.4646 8.84095L19.3595 6.92682L17.9923 7.46455C17.5338 7.64484 17.0182 7.60639 16.5916 7.36008L14.4623 6.1307C14.0357 5.8844 13.7445 5.4571 13.6716 4.96995L13.4535 3.51701H11.2433ZM9.36527 2.95361C9.48403 2.16188 10.1642 1.57617 10.9647 1.57617H13.7321C14.5328 1.57617 15.2129 2.16188 15.3316 2.95361L15.5678 4.52784L17.4271 5.60131L18.9085 5.01869C19.6535 4.72568 20.5007 5.02182 20.9011 5.71516L22.2848 8.11179C22.6851 8.80513 22.5179 9.68694 21.8917 10.1857L20.6463 11.1772V13.3242L21.8917 14.3158C22.5179 14.8146 22.6851 15.6964 22.2848 16.3898L20.9011 18.7864C20.5007 19.4798 19.6535 19.7759 18.9085 19.4829L17.4271 18.9002L15.5678 19.9738L15.3316 21.5479C15.2129 22.3397 14.5328 22.9254 13.7321 22.9254H10.9647C10.1642 22.9254 9.48403 22.3397 9.36527 21.5479L9.12914 19.9738L7.26982 18.9002L5.78843 19.4829C5.0434 19.7759 4.19609 19.4798 3.7958 18.7864L2.4121 16.3898C2.0118 15.6964 2.17899 14.8146 2.80527 14.3158L4.05053 13.3242V11.1772L2.80527 10.1857C2.17899 9.68694 2.0118 8.80511 2.4121 8.11179L3.7958 5.71516C4.19609 5.02182 5.0434 4.72568 5.78843 5.01869L7.26982 5.60131L9.12914 4.52784L9.36527 2.95361Z" fill="#FF782E"></path>
<path fill-rule="evenodd" clip-rule="evenodd" d="M12.3473 10.6342C11.454 10.6342 10.7299 11.3583 10.7299 12.2516C10.7299 13.1449 11.454 13.8689 12.3473 13.8689C13.2406 13.8689 13.9646 13.1449 13.9646 12.2516C13.9646 11.3583 13.2406 10.6342 12.3473 10.6342ZM8.78906 12.2516C8.78906 10.2864 10.3821 8.69336 12.3473 8.69336C14.3124 8.69336 15.9055 10.2864 15.9055 12.2516C15.9055 14.2167 14.3124 15.8098 12.3473 15.8098C10.3821 15.8098 8.78906 14.2167 8.78906 12.2516Z" fill="#FF782E"></path>
</svg>