<svg width="24" height="28" viewBox="0 0 24 28" fill="none" xmlns="http://www.w3.org/2000/svg">
<path d="M4.10067 21.8125C4.15692 21.6072 4.03364 21.3217 3.91599 21.1159C3.87951 21.0545 3.83977 20.995 3.79692 20.9378C2.78783 19.4075 2.24998 17.6147 2.25005 15.7816C2.23317 10.5198 6.5963 6.25 11.9916 6.25C16.6969 6.25 20.6251 9.50969 21.5424 13.8367C21.6801 14.4782 21.7497 15.1325 21.7501 15.7886C21.7501 21.0578 17.5552 25.3947 12.1599 25.3947C11.3016 25.3947 10.1443 25.1791 9.51286 25.0023C8.88146 24.8256 8.25099 24.5913 8.08833 24.5284C7.92181 24.4645 7.74499 24.4316 7.56661 24.4314C7.3721 24.4307 7.17947 24.4695 7.00036 24.5453L3.82036 25.6928C3.75087 25.7228 3.67722 25.7421 3.60192 25.75C3.54237 25.7498 3.48344 25.7378 3.42855 25.7147C3.37366 25.6916 3.32389 25.6579 3.28213 25.6154C3.24037 25.573 3.20744 25.5226 3.18525 25.4674C3.16307 25.4121 3.15206 25.353 3.15286 25.2934C3.15677 25.2412 3.1662 25.1895 3.18099 25.1392L4.10067 21.8125Z" stroke="#FF782E" stroke-width="1.5" stroke-miterlimit="10" stroke-linecap="round"></path>
<path d="M7.5 17.5C8.32843 17.5 9 16.8284 9 16C9 15.1716 8.32843 14.5 7.5 14.5C6.67157 14.5 6 15.1716 6 16C6 16.8284 6.67157 17.5 7.5 17.5Z" fill="#FF782E"></path>
<path d="M12 17.5C12.8284 17.5 13.5 16.8284 13.5 16C13.5 15.1716 12.8284 14.5 12 14.5C11.1716 14.5 10.5 15.1716 10.5 16C10.5 16.8284 11.1716 17.5 12 17.5Z" fill="#FF782E"></path>
<path d="M16.5 17.5C17.3284 17.5 18 16.8284 18 16C18 15.1716 17.3284 14.5 16.5 14.5C15.6716 14.5 15 15.1716 15 16C15 16.8284 15.6716 17.5 16.5 17.5Z" fill="#FF782E"></path>
</svg>