<svg width="25" height="24" viewBox="0 0 25 24" fill="none" xmlns="http://www.w3.org/2000/svg">
<path d="M20.7313 16.8568V7.14317C21.7585 6.77694 22.5 5.80444 22.5 4.65306C22.5 3.19008 21.3099 2 19.8469 2C18.6956 2 17.7231 2.74153 17.3568 3.76871H7.64317C7.27694 2.74153 6.30444 2 5.15306 2C3.69008 2 2.5 3.19008 2.5 4.65306C2.5 5.80444 3.24153 6.77688 4.26871 7.14311V16.8568C3.24153 17.2231 2.5 18.1956 2.5 19.3469C2.5 20.8099 3.69008 22 5.15306 22C6.30444 22 7.27694 21.2585 7.64317 20.2313H17.3569C17.7231 21.2585 18.6956 22 19.8469 22C21.3099 22 22.5 20.8099 22.5 19.3469C22.5 18.1956 21.7585 17.2231 20.7313 16.8568ZM17.3568 18.4626H7.64317C7.37604 17.7134 6.78661 17.124 6.03741 16.8568V7.14317C6.78661 6.87604 7.37604 6.28661 7.64317 5.53742H17.3569C17.624 6.28661 18.2134 6.87598 18.9626 7.14311V16.8568C18.2134 17.124 17.624 17.7134 17.3568 18.4626ZM19.8469 3.76871C20.3349 3.76871 20.7313 4.16554 20.7313 4.65306C20.7313 5.14058 20.3349 5.53742 19.8469 5.53742C19.359 5.53742 18.9626 5.14058 18.9626 4.65306C18.9626 4.16554 19.359 3.76871 19.8469 3.76871ZM5.15306 3.76871C5.64101 3.76871 6.03741 4.16554 6.03741 4.65306C6.03741 5.14058 5.64101 5.53742 5.15306 5.53742C4.66511 5.53742 4.26871 5.14058 4.26871 4.65306C4.26871 4.16554 4.66511 3.76871 5.15306 3.76871ZM5.15306 20.2313C4.66511 20.2313 4.26871 19.8345 4.26871 19.3469C4.26871 18.8594 4.66511 18.4626 5.15306 18.4626C5.64101 18.4626 6.03741 18.8594 6.03741 19.3469C6.03741 19.8345 5.64101 20.2313 5.15306 20.2313ZM19.8469 20.2313C19.359 20.2313 18.9626 19.8345 18.9626 19.3469C18.9626 18.8594 19.359 18.4626 19.8469 18.4626C20.3349 18.4626 20.7313 18.8594 20.7313 19.3469C20.7313 19.8345 20.3349 20.2313 19.8469 20.2313Z" fill="#FF782E"></path>
</svg>