<svg width="158" height="30" viewBox="0 0 158 30" fill="none" xmlns="http://www.w3.org/2000/svg">
<g clip-path="url(#clip0_1045_1908)">
<path d="M94.8944 0.183594H86.2656V0.44778C86.7471 0.44778 87.2089 0.639059 87.5494 0.979537C87.8899 1.32002 88.0812 1.7818 88.0812 2.26331V21.0563C88.0812 21.5378 87.8899 21.9996 87.5494 22.34C87.2089 22.6805 86.7471 22.8718 86.2656 22.8718V23.136H93.3152V22.8698H93.0471C92.774 22.8698 92.5037 22.816 92.2515 22.7115C91.9993 22.6069 91.7701 22.4537 91.5772 22.2606C91.3842 22.0674 91.2312 21.8381 91.1269 21.5858C91.0226 21.3335 90.9691 21.0631 90.9693 20.7901V13.6293H94.8964C99.8801 13.6293 103.521 11.3986 103.521 6.90742C103.521 2.41626 99.8861 0.183594 94.8944 0.183594ZM94.3362 12.8764H90.9594V0.936424H94.3362C98.5672 0.936424 100.337 3.39753 100.337 6.90742C100.337 10.4173 98.5672 12.8764 94.3362 12.8764Z" fill="#0F0D05"></path>
<path d="M111.582 6.87305C106.894 6.87305 103.285 10.3829 103.285 15.1701C103.285 19.9572 106.894 23.4671 111.582 23.4671C116.27 23.4671 119.879 19.9572 119.879 15.1701C119.879 10.3829 116.272 6.87305 111.582 6.87305ZM111.582 22.8752C108.565 22.8752 106.533 19.4328 106.533 15.1701C106.533 10.9073 108.565 7.46498 111.582 7.46498C114.599 7.46498 116.633 10.9073 116.633 15.1701C116.633 19.4328 114.599 22.8752 111.582 22.8752Z" fill="#0F0D05"></path>
<path d="M144.864 21.0557V12.5799C144.864 8.80578 142.765 6.87305 139.747 6.87305C136.929 6.87305 134.863 8.67666 133.987 11.7595V7.19086H129.285V7.45505C129.767 7.45505 130.228 7.64633 130.569 7.98681C130.909 8.32729 131.101 8.78907 131.101 9.27058V21.0557C131.101 21.5372 130.909 21.999 130.569 22.3394C130.228 22.6799 129.767 22.8712 129.285 22.8712V23.1354H135.802V22.8712C135.321 22.8712 134.859 22.6799 134.519 22.3394C134.178 21.999 133.987 21.5372 133.987 21.0557V14.743C133.987 11.0047 135.888 8.51378 138.512 8.51378C141.094 8.51378 141.988 10.514 141.988 12.8421V21.0557C141.988 21.5372 141.797 21.999 141.456 22.3394C141.116 22.6799 140.654 22.8712 140.172 22.8712V23.1354H146.69V22.8712C146.45 22.8725 146.213 22.8265 145.992 22.7359C145.77 22.6452 145.569 22.5117 145.399 22.343C145.23 22.1742 145.095 21.9737 145.003 21.7527C144.911 21.5318 144.864 21.2949 144.864 21.0557Z" fill="#0F0D05"></path>
<path d="M125.782 21.056V7.20117H121.078V7.46536C121.56 7.46536 122.021 7.65664 122.362 7.99712C122.702 8.33759 122.894 8.79938 122.894 9.28089V21.056C122.894 21.5375 122.702 21.9993 122.362 22.3398C122.021 22.6803 121.56 22.8716 121.078 22.8716V23.1358H127.597V22.8716C127.116 22.8716 126.654 22.6803 126.314 22.3398C125.973 21.9993 125.782 21.5375 125.782 21.056Z" fill="#0F0D05"></path>
<path d="M156.838 20.127C156.495 20.6851 155.557 21.9147 154.139 21.9147C152.663 21.9147 151.874 20.6355 151.874 18.5041V7.95456H156.231L156.395 7.19974H151.874V1.79883H151.612C151.612 2.57242 151.46 3.33849 151.164 4.05327C150.869 4.76806 150.435 5.41755 149.888 5.96466C149.341 6.51177 148.692 6.94576 147.977 7.24187C147.262 7.53797 146.496 7.69037 145.723 7.69037V7.95456H148.99V18.6074C148.99 21.7856 150.597 23.3965 153.162 23.3965C155.295 23.3965 156.521 21.283 157.075 20.262L156.838 20.127Z" fill="#0F0D05"></path>
<path d="M31.4478 7.41018C30.5711 7.82047 29.8075 8.43816 29.2231 9.20983L29.0443 9.4462V7.19963H26.6289V23.1402H29.0443V14.7756C29.0128 13.7214 29.2471 12.6763 29.7256 11.7365C30.1373 10.8845 30.8169 10.1909 31.6604 9.76204C32.9594 9.05688 34.2903 9.21579 35.208 9.34689V6.96325C34.338 6.84407 32.7687 6.7527 31.4478 7.41018Z" fill="#0F0D05"></path>
<path d="M40.6264 7.20117H38.2109V23.1417H40.6264V7.20117Z" fill="#0F0D05"></path>
<path d="M65.9154 7.20117H63.5V23.1417H65.9154V7.20117Z" fill="#0F0D05"></path>
<path d="M51.1987 6.86343C49.8735 6.85489 48.5705 7.20367 47.4268 7.87306C46.283 8.54245 45.3408 9.50772 44.6993 10.6673C43.979 11.9842 43.6174 13.4672 43.6505 14.9678C43.6177 16.4684 43.9794 17.9513 44.6993 19.2683C45.3414 20.4272 46.2838 21.3918 47.4274 22.0608C48.5711 22.7298 49.8738 23.0785 51.1987 23.0701C53.5307 23.0701 55.384 22.2101 56.7089 20.5137L56.8876 20.2873V22.4464C56.8876 24.1189 56.4268 25.426 55.519 26.3377C54.6113 27.2495 53.3638 27.7103 51.8204 27.7103C50.7196 27.7289 49.6362 27.4348 48.6959 26.8621C47.7928 26.2888 47.0331 25.5162 46.4751 24.6036L44.7252 26.3476C45.5112 27.4977 46.5717 28.4335 47.8106 29.0703C49.0496 29.7071 50.4278 30.0248 51.8204 29.9946C53.1472 30.011 54.457 29.6948 55.6303 29.0749C56.7688 28.4591 57.7029 27.5244 58.3178 26.3854C58.9713 25.2075 59.311 23.8031 59.311 22.1862V7.20112H56.8876V9.56886L56.7108 9.35632C55.3422 7.70366 53.489 6.86343 51.1987 6.86343ZM57.0843 14.9678C57.0843 16.6582 56.5579 18.0665 55.519 19.1511C54.4802 20.2356 53.1155 20.7878 51.4609 20.7878C50.5173 20.7901 49.5906 20.5368 48.7793 20.0549C47.9394 19.5561 47.2449 18.8459 46.7651 17.995C46.247 17.0713 45.9831 16.0267 46.0004 14.9678C45.983 13.9095 46.2469 12.8655 46.7651 11.9426C47.2443 11.0912 47.939 10.3809 48.7793 9.8827C49.5906 9.40076 50.5173 9.14748 51.4609 9.14974C53.1155 9.14974 54.4802 9.69996 55.519 10.7865C56.5579 11.873 57.0843 13.2774 57.0843 14.9678Z" fill="#0F0D05"></path>
<path d="M77.6263 6.86223C76.5863 6.84295 75.5642 7.1341 74.6905 7.69848C73.8506 8.25008 73.1601 9.00066 72.6803 9.88348L72.4935 10.2251V7.19991H70.0781V23.1404H72.4935V15.0659C72.4817 14.038 72.7088 13.0214 73.157 12.0963C73.5633 11.2423 74.19 10.512 74.9725 9.98081C75.7066 9.48172 76.5737 9.21461 77.4614 9.21408C79.9364 9.21408 81.1898 10.8747 81.1898 14.1502V23.1404H83.5993V13.9873C83.5993 11.6037 83.063 9.80204 82.0102 8.62413C80.9574 7.44622 79.4835 6.86223 77.6263 6.86223Z" fill="#0F0D05"></path>
<path d="M17.9028 1.57143C16.1243 0.530195 14.098 -0.0125672 12.0371 0.000220861C9.97684 -0.0125041 7.95123 0.530266 6.17337 1.57143C4.40022 2.60746 2.93073 4.09159 1.91233 5.87492C0.893936 7.65825 0.362452 9.67805 0.37121 11.7317C0.362049 13.7851 0.893147 15.8049 1.91121 17.5882C2.92926 19.3716 4.39847 20.8558 6.17138 21.8919C7.94909 22.9337 9.97469 23.4771 12.0351 23.4651C14.0872 23.4701 16.104 22.9315 17.8803 21.904C19.6566 20.8764 21.129 19.3967 22.1477 17.6153C23.1775 15.8262 23.7142 13.7959 23.703 11.7317C23.712 9.67825 23.1808 7.65858 22.1627 5.87527C21.1447 4.09195 19.6756 2.60771 17.9028 1.57143ZM19.9527 16.3897C19.1705 17.7957 18.0301 18.9696 16.6474 19.7923C15.2558 20.6288 13.6607 21.0659 12.0371 21.0556C10.4142 21.0683 8.8192 20.6339 7.42676 19.8003C6.04365 18.9752 4.90386 17.7984 4.12344 16.3897C3.33262 14.9649 2.91765 13.3622 2.91765 11.7327C2.91765 10.1031 3.33262 8.50042 4.12344 7.07564C4.90444 5.66939 6.04426 4.4953 7.42676 3.673C8.81916 2.83902 10.4141 2.40403 12.0371 2.41563C13.6602 2.40372 15.2552 2.83873 16.6474 3.673C18.0306 4.49518 19.171 5.66925 19.9527 7.07564C20.7436 8.50042 21.1585 10.1031 21.1585 11.7327C21.1585 13.3622 20.7436 14.9649 19.9527 16.3897Z" fill="#0F0D05"></path>
<path d="M39.4205 3.61646C40.4079 3.61646 41.2083 2.81607 41.2083 1.82874C41.2083 0.841407 40.4079 0.0410156 39.4205 0.0410156C38.4332 0.0410156 37.6328 0.841407 37.6328 1.82874C37.6328 2.81607 38.4332 3.61646 39.4205 3.61646Z" fill="#0064E5"></path>
<path d="M64.7057 3.61646C65.693 3.61646 66.4934 2.81607 66.4934 1.82874C66.4934 0.841407 65.693 0.0410156 64.7057 0.0410156C63.7184 0.0410156 62.918 0.841407 62.918 1.82874C62.918 2.81607 63.7184 3.61646 64.7057 3.61646Z" fill="#0064E5"></path>
<path d="M123.956 3.61646C124.943 3.61646 125.743 2.81607 125.743 1.82874C125.743 0.841407 124.943 0.0410156 123.956 0.0410156C122.968 0.0410156 122.168 0.841407 122.168 1.82874C122.168 2.81607 122.968 3.61646 123.956 3.61646Z" fill="#0064E5"></path>
</g>
<defs>
<clipPath id="clip0_1045_1908">
<rect width="156.696" height="30" fill="white" transform="translate(0.371094)"></rect>
</clipPath>
</defs>
</svg>