<svg width="151" height="40" viewBox="0 0 151 40" fill="none" xmlns="http://www.w3.org/2000/svg">
<path fill-rule="evenodd" clip-rule="evenodd" d="M0.674079 19.3683L2.19151 19.6408C2.25911 20.2257 2.46444 20.6607 2.81 20.9456C3.15304 21.2281 3.63381 21.3706 4.24479 21.3706C4.91336 21.3706 5.44421 21.2131 5.83984 20.8931C6.23798 20.5732 6.50841 20.0957 6.65365 19.4633C6.74379 19.0759 6.78886 18.266 6.78886 17.0236C6.45583 17.4986 6.08524 17.856 5.66707 18.0985C5.25641 18.341 4.79567 18.4609 4.28986 18.4609C3.21064 18.4609 2.31671 18.006 1.60306 17.1011C0.781751 16.0587 0.371094 14.6614 0.371094 12.9116C0.371094 11.7368 0.548878 10.7119 0.911959 9.83202C1.27254 8.95463 1.74329 8.30722 2.33173 7.89477C2.91266 7.48482 3.56871 7.27734 4.29487 7.27734C4.83073 7.27734 5.31651 7.40983 5.75721 7.67229C6.19291 7.93226 6.58353 8.32471 6.92157 8.84715V7.52731H8.30128V16.9886C8.30128 18.6684 8.16106 19.8683 7.88562 20.5907C7.61018 21.3081 7.15946 21.873 6.53095 22.2905C5.90244 22.7079 5.14874 22.9129 4.27234 22.9129C3.10296 22.9129 2.21154 22.6004 1.58303 21.973C0.957031 21.3456 0.65655 20.4782 0.674079 19.3683ZM1.94111 12.7992C1.94111 14.2315 2.17899 15.2788 2.65976 15.9363C3.13802 16.5962 3.72897 16.9236 4.42007 16.9236C5.11368 16.9236 5.70713 16.6012 6.1904 15.9563C6.67869 15.3113 6.91907 14.2865 6.91907 12.8816C6.91907 11.5093 6.67117 10.4919 6.16787 9.82203C5.66957 9.15461 5.0611 8.81965 4.34495 8.81965C3.70643 8.81965 3.14553 9.15461 2.66226 9.82203C2.18149 10.4919 1.94111 11.4843 1.94111 12.7992Z" fill="#0F0D05"></path>
<path fill-rule="evenodd" clip-rule="evenodd" d="M17.3252 18.4635V16.8587C16.9721 17.4761 16.5614 17.9385 16.0907 18.246C15.6149 18.556 15.0766 18.7109 14.4781 18.7109C13.772 18.7109 13.1685 18.5185 12.6677 18.1385C12.1644 17.7561 11.8339 17.2761 11.6611 16.6912C11.4933 16.1088 11.4082 15.3139 11.4082 14.3015V7.52734H12.9206V13.5941C12.9206 14.7189 12.9782 15.4739 13.0934 15.8563C13.2036 16.2363 13.4189 16.5412 13.7219 16.7737C14.0274 16.9987 14.3755 17.1161 14.7686 17.1161C15.4972 17.1161 16.0957 16.8187 16.5614 16.2213C16.9621 15.7088 17.1599 14.7614 17.1599 13.3891V7.52734H18.6999V18.4635H17.3252Z" fill="#0F0D05"></path>
<path fill-rule="evenodd" clip-rule="evenodd" d="M27.8071 17.1072C27.2988 17.6371 26.7679 18.0371 26.2196 18.3046C25.6662 18.572 25.0927 18.707 24.5018 18.707C23.5628 18.707 22.8166 18.427 22.2607 17.8646C21.7023 17.3047 21.4219 16.5548 21.4219 15.6024C21.4219 14.975 21.5546 14.42 21.8125 13.9326C22.0779 13.4502 22.436 13.0702 22.8892 12.7977C23.345 12.5253 24.0336 12.3228 24.955 12.1928C26.1945 12.0028 27.106 11.7729 27.6869 11.5079L27.6944 11.033C27.6944 10.2906 27.5617 9.76813 27.2913 9.46816C26.9132 9.03322 26.3322 8.81324 25.546 8.81324C24.8373 8.81324 24.3065 8.95823 23.9559 9.25319C23.6054 9.54565 23.3475 10.0931 23.1797 10.9005L21.6673 10.623C21.8776 9.45816 22.3083 8.60577 22.9618 8.07334C23.6154 7.5384 24.5444 7.27344 25.7588 7.27344C26.7003 7.27344 27.4415 7.45092 27.9799 7.80337C28.5157 8.15833 28.8563 8.59327 28.9965 9.11821C29.1392 9.63814 29.2093 10.4005 29.2093 11.4029V13.8726C29.2093 15.6024 29.2394 16.6923 29.3045 17.1422C29.3671 17.5921 29.4948 18.0296 29.6776 18.4545H28.0825C27.9398 18.0821 27.8522 17.6321 27.8071 17.1072ZM27.6894 12.9677C27.1285 13.2577 26.2997 13.5052 25.1979 13.7076C24.5544 13.8201 24.1087 13.9401 23.8508 14.0801C23.5979 14.2226 23.4 14.4175 23.2573 14.6725C23.1171 14.9275 23.0445 15.2224 23.0445 15.5549C23.0445 16.0673 23.2097 16.4823 23.5328 16.7922C23.8558 17.1022 24.3015 17.2572 24.8749 17.2572C25.4208 17.2572 25.9141 17.1122 26.3573 16.8347C26.803 16.5523 27.136 16.1773 27.3564 15.7049C27.5792 15.2374 27.6919 14.55 27.6919 13.6501V12.9677H27.6894Z" fill="#0F0D05"></path>
<path fill-rule="evenodd" clip-rule="evenodd" d="M32.4297 18.4629V7.52677H33.8069V9.19156C34.1549 8.41915 34.4755 7.90922 34.7659 7.65675C35.0564 7.40428 35.3869 7.2793 35.745 7.2793C36.2533 7.2793 36.7716 7.47927 37.3025 7.88672L36.7766 9.6165C36.3985 9.34404 36.0355 9.20406 35.6749 9.20406C35.3569 9.20406 35.0639 9.31404 34.7935 9.54151C34.528 9.76899 34.3402 10.0839 34.2326 10.4889C34.0398 11.1963 33.9446 11.9462 33.9446 12.7411V18.4604H32.4297V18.4629Z" fill="#0F0D05"></path>
<path fill-rule="evenodd" clip-rule="evenodd" d="M44.9081 17.1072C44.3973 17.6371 43.8689 18.0371 43.3156 18.3046C42.7647 18.572 42.1938 18.707 41.6028 18.707C40.6663 18.707 39.9176 18.427 39.3567 17.8646C38.8008 17.3047 38.5254 16.5548 38.5254 15.6024C38.5254 14.975 38.6506 14.42 38.9135 13.9326C39.1764 13.4502 39.5395 13.0702 39.9927 12.7977C40.4435 12.5253 41.1371 12.3228 42.056 12.1928C43.3005 12.0028 44.207 11.7729 44.7879 11.5079L44.7979 11.033C44.7979 10.2906 44.6627 9.76813 44.3973 9.46816C44.0192 9.03322 43.4357 8.81324 42.6495 8.81324C41.9409 8.81324 41.4125 8.95823 41.0594 9.25319C40.7089 9.54565 40.451 10.0931 40.2882 10.9005L38.7733 10.623C38.9861 9.45816 39.4168 8.60577 40.0704 8.07334C40.7189 7.5384 41.6504 7.27344 42.8623 7.27344C43.8063 7.27344 44.5475 7.45092 45.0809 7.80337C45.6242 8.15833 45.9623 8.59327 46.1025 9.11821C46.2452 9.63814 46.3154 10.4005 46.3154 11.4029V13.8726C46.3154 15.6024 46.3454 16.6923 46.408 17.1422C46.4706 17.5921 46.5933 18.0296 46.7811 18.4545H45.186C45.0408 18.0821 44.9507 17.6321 44.9081 17.1072ZM44.7879 12.9677C44.2295 13.2577 43.4007 13.5052 42.2964 13.7076C41.6554 13.8201 41.2072 13.9401 40.9543 14.0801C40.6989 14.2226 40.4985 14.4175 40.3608 14.6725C40.2206 14.9275 40.1505 15.2224 40.1505 15.5549C40.1505 16.0673 40.3107 16.4823 40.6338 16.7922C40.9593 17.1022 41.4075 17.2572 41.9784 17.2572C42.5218 17.2572 43.0176 17.1122 43.4608 16.8347C43.904 16.5523 44.237 16.1773 44.4599 15.7049C44.6777 15.2374 44.7904 14.55 44.7904 13.6501V12.9677H44.7879Z" fill="#0F0D05"></path>
<path fill-rule="evenodd" clip-rule="evenodd" d="M49.5293 18.4634V7.52731H50.934V9.06962C51.2596 8.46969 51.6627 8.01975 52.136 7.72229C52.6142 7.42733 53.1551 7.27734 53.7711 7.27734C54.2493 7.27734 54.6876 7.37233 55.0932 7.56231C55.5014 7.74978 55.8294 7.99725 56.0798 8.30222C56.3302 8.60718 56.513 9.00213 56.6357 9.48957C56.7609 9.97701 56.821 10.7269 56.821 11.7343V18.4609H55.3085V11.8043C55.3085 10.9994 55.2384 10.412 55.1032 10.0395C54.9655 9.66954 54.7451 9.37958 54.4572 9.17711C54.1667 8.97463 53.8237 8.87714 53.4406 8.87714C52.7094 8.87714 52.126 9.14711 51.6928 9.68954C51.2596 10.2345 51.0442 11.1644 51.0442 12.4842V18.4659H49.5293V18.4634Z" fill="#0F0D05"></path>
<path fill-rule="evenodd" clip-rule="evenodd" d="M63.3736 16.7879L63.594 18.4352C63.1733 18.5427 62.7927 18.5977 62.4522 18.5977C61.9188 18.5977 61.4906 18.4927 61.1701 18.2852C60.8396 18.0727 60.6217 17.7903 60.499 17.4253C60.3764 17.0629 60.3163 16.3405 60.3163 15.2581L60.3438 8.98387H59.1895V7.52655H60.3438L60.3163 4.83439L61.8337 3.70703L61.8562 7.52655H63.3736V8.98387H61.8562L61.8337 15.3581C61.8337 15.948 61.8788 16.3255 61.9689 16.5004C62.1016 16.7454 62.3445 16.8679 62.7001 16.8679C62.8703 16.8679 63.0957 16.8404 63.3736 16.7879Z" fill="#0F0D05"></path>
<path fill-rule="evenodd" clip-rule="evenodd" d="M71.8183 14.89L73.3883 15.1625C73.1254 16.3323 72.6521 17.2147 71.966 17.8121C71.285 18.4095 70.4386 18.707 69.4295 18.707C68.1549 18.707 67.1233 18.2221 66.3395 17.2597C65.5508 16.2923 65.1602 14.9025 65.1602 13.0827C65.1602 11.1954 65.5558 9.75313 66.3521 8.76075C67.1508 7.77088 68.155 7.27344 69.3744 7.27344C70.5388 7.27344 71.5078 7.76088 72.2841 8.73575C73.0653 9.70813 73.4534 11.118 73.4534 12.9602L73.4409 13.4577H66.7252C66.7903 14.6825 67.0732 15.6074 67.5815 16.2298C68.0898 16.8547 68.7108 17.1647 69.437 17.1647C70.5763 17.1697 71.3726 16.4098 71.8183 14.89ZM66.8203 11.9229H71.8434C71.7732 10.988 71.5704 10.2881 71.2324 9.82812C70.7416 9.1557 70.1181 8.82074 69.3569 8.82074C68.6783 8.82074 68.0923 9.10071 67.6116 9.65814C67.1333 10.2181 66.8654 10.9705 66.8203 11.9229Z" fill="#0F0D05"></path>
<path fill-rule="evenodd" clip-rule="evenodd" d="M82.3018 14.89L83.8668 15.1625C83.6114 16.3323 83.1357 17.2147 82.4521 17.8121C81.7685 18.4095 80.9196 18.707 79.9105 18.707C78.6385 18.707 77.6093 18.2221 76.8231 17.2597C76.0343 16.2923 75.6387 14.9025 75.6387 13.0827C75.6387 11.1954 76.0368 9.75313 76.8331 8.76075C77.6294 7.77088 78.6385 7.27344 79.8554 7.27344C81.0173 7.27344 81.9863 7.76088 82.7676 8.73575C83.5488 9.70813 83.9319 11.118 83.9319 12.9602L83.9244 13.4577H77.2112C77.2738 14.6825 77.5592 15.6074 78.0651 16.2298C78.5759 16.8547 79.1944 17.1647 79.923 17.1647C81.0598 17.1697 81.8536 16.4098 82.3018 14.89ZM77.3013 11.9229H82.3269C82.2568 10.988 82.0539 10.2881 81.7134 9.82812C81.2226 9.1557 80.5991 8.82074 79.8429 8.82074C79.1593 8.82074 78.5759 9.10071 78.0926 9.65814C77.6168 10.2181 77.3489 10.9705 77.3013 11.9229Z" fill="#0F0D05"></path>
<path fill-rule="evenodd" clip-rule="evenodd" d="M92.4829 18.4627V17.0679C92.2074 17.5978 91.8544 18.0053 91.4162 18.2877C90.9855 18.5702 90.5122 18.7102 90.0164 18.7102C88.9547 18.7102 88.0358 18.2078 87.257 17.2129C86.4808 16.213 86.0977 14.8057 86.0977 12.9959C86.0977 11.7536 86.2654 10.6962 86.616 9.8363C86.9565 8.97141 87.4148 8.32899 87.9907 7.91154C88.5666 7.49159 89.2051 7.28162 89.9088 7.28162C90.4096 7.28162 90.8753 7.4166 91.3035 7.68407C91.7317 7.95153 92.0922 8.32399 92.3727 8.80143V3.34961H93.9152V18.4627H92.4829ZM87.6677 13.0059C87.6677 14.4132 87.9106 15.4606 88.4013 16.1455C88.8971 16.8279 89.468 17.1704 90.1191 17.1704C90.7726 17.1704 91.326 16.8429 91.8043 16.188C92.28 15.5306 92.5179 14.5382 92.5179 13.2084C92.5179 11.6861 92.2825 10.5712 91.8043 9.87129C91.3285 9.16888 90.7351 8.81893 90.0114 8.81893C89.3679 8.81893 88.817 9.15638 88.3563 9.8288C87.898 10.5037 87.6677 11.5611 87.6677 13.0059Z" fill="#0F0D05"></path>
<path fill-rule="evenodd" clip-rule="evenodd" d="M97.6035 0V23.737H87.5273L118.95 40L150.37 23.737H140.314V0H97.6035Z" fill="#D03138"></path>
<path fill-rule="evenodd" clip-rule="evenodd" d="M100.242 18.4627V3.34961H105.738C106.885 3.34961 107.734 3.48959 108.28 3.77206C108.828 4.05452 109.272 4.52196 109.625 5.17688C109.978 5.8343 110.148 6.5917 110.148 7.4591C110.148 8.59645 109.853 9.51634 109.254 10.2263C108.661 10.9337 107.789 11.3861 106.655 11.5761C107.128 11.8535 107.491 12.1335 107.734 12.421C108.222 12.9984 108.646 13.6408 109.019 14.3482L111.172 18.4577H109.106L107.456 15.3206C106.818 14.0958 106.334 13.2684 106.009 12.8409C105.686 12.411 105.37 12.1235 105.067 11.976C104.762 11.8285 104.331 11.7536 103.788 11.7536H101.892V18.4577H100.242V18.4627ZM101.892 10.0263H105.408C106.174 10.0263 106.758 9.93379 107.153 9.74631C107.549 9.56133 107.864 9.27137 108.097 8.87142C108.33 8.47397 108.448 8.01153 108.448 7.47909C108.448 6.71419 108.225 6.11676 107.779 5.67932C107.336 5.24437 106.672 5.0269 105.799 5.0269H101.895V10.0263H101.892Z" fill="white"></path>
<path fill-rule="evenodd" clip-rule="evenodd" d="M119.262 17.1072C118.754 17.6371 118.226 18.0371 117.675 18.3046C117.122 18.572 116.556 18.707 115.957 18.707C115.026 18.707 114.277 18.427 113.719 17.8646C113.16 17.3047 112.885 16.5548 112.885 15.6024C112.885 14.975 113.012 14.42 113.275 13.9326C113.538 13.4502 113.899 13.0702 114.347 12.7977C114.805 12.5253 115.496 12.3228 116.42 12.1928C117.66 12.0028 118.569 11.7729 119.147 11.5079L119.16 11.033C119.16 10.2906 119.025 9.76813 118.754 9.46816C118.374 9.03322 117.795 8.81324 117.006 8.81324C116.295 8.81324 115.767 8.95823 115.414 9.25319C115.068 9.54565 114.805 10.0931 114.64 10.9005L113.128 10.623C113.34 9.45816 113.774 8.60577 114.422 8.07334C115.073 7.5384 116.005 7.27344 117.222 7.27344C118.161 7.27344 118.899 7.45092 119.438 7.80337C119.976 8.15833 120.312 8.59327 120.452 9.11821C120.595 9.63814 120.67 10.4005 120.67 11.4029V13.8726C120.67 15.6024 120.697 16.6923 120.762 17.1422C120.827 17.5921 120.953 18.0296 121.138 18.4545H119.543C119.4 18.0821 119.308 17.6321 119.262 17.1072ZM119.145 12.9677C118.589 13.2577 117.758 13.5052 116.656 13.7076C116.012 13.8201 115.567 13.9401 115.311 14.0801C115.056 14.2226 114.858 14.4175 114.72 14.6725C114.575 14.9275 114.505 15.2224 114.505 15.5549C114.505 16.0673 114.67 16.4823 114.991 16.7922C115.321 17.1022 115.767 17.2572 116.338 17.2572C116.884 17.2572 117.374 17.1122 117.818 16.8347C118.266 16.5523 118.596 16.1773 118.819 15.7049C119.042 15.2374 119.147 14.55 119.147 13.6501V12.9677H119.145Z" fill="white"></path>
<path fill-rule="evenodd" clip-rule="evenodd" d="M127.249 16.7879L127.469 18.4352C127.046 18.5427 126.668 18.5977 126.327 18.5977C125.794 18.5977 125.368 18.4927 125.043 18.2852C124.72 18.0727 124.494 17.7903 124.374 17.4253C124.254 17.0629 124.191 16.3405 124.191 15.2581L124.219 8.98387H123.064V7.52655H124.219L124.191 4.83439L125.709 3.70703L125.734 7.52655H127.249V8.98387H125.734L125.709 15.3581C125.709 15.948 125.751 16.3255 125.841 16.5004C125.974 16.7454 126.214 16.8679 126.575 16.8679C126.745 16.8679 126.968 16.8404 127.249 16.7879Z" fill="white"></path>
<path fill-rule="evenodd" clip-rule="evenodd" d="M135.692 14.89L137.259 15.1625C136.996 16.3323 136.523 17.2147 135.84 17.8121C135.161 18.4095 134.315 18.707 133.298 18.707C132.024 18.707 130.994 18.2221 130.211 17.2597C129.419 16.2923 129.031 14.9025 129.031 13.0827C129.031 11.1954 129.427 9.75313 130.223 8.76075C131.022 7.77088 132.024 7.27344 133.243 7.27344C134.41 7.27344 135.379 7.76088 136.163 8.73575C136.936 9.70813 137.327 11.118 137.327 12.9602L137.315 13.4577H130.601C130.664 14.6825 130.947 15.6074 131.455 16.2298C131.961 16.8547 132.582 17.1647 133.308 17.1647C134.447 17.1697 135.246 16.4098 135.692 14.89ZM130.694 11.9229H135.719C135.647 10.988 135.449 10.2881 135.108 9.82812C134.618 9.1557 133.994 8.82074 133.233 8.82074C132.552 8.82074 131.966 9.10071 131.49 9.65814C131.009 10.2181 130.741 10.9705 130.694 11.9229Z" fill="white"></path>
<path d="M12.6428 22.2227H11.0703V34.7686H12.6428V22.2227Z" fill="#0F0D05"></path>
<path fill-rule="evenodd" clip-rule="evenodd" d="M19.1733 25.75C18.074 25.75 17.3278 26.0475 16.802 26.7074L16.7168 25.9225H15.4648V34.7689H17.0374V30.2769C17.0374 28.0122 17.5932 27.1298 19.018 27.1298C20.3552 27.1298 20.8785 27.8872 20.8785 29.8295V34.7689H22.451V29.7095C22.451 28.7021 22.3684 28.0172 22.1856 27.4898C21.7774 26.3349 20.7633 25.75 19.1733 25.75Z" fill="#0F0D05"></path>
<path fill-rule="evenodd" clip-rule="evenodd" d="M30.4087 30.28C29.938 29.93 29.3971 29.7725 27.9973 29.5701C27.2336 29.4701 26.9482 29.4026 26.6752 29.2576C26.3647 29.0726 26.192 28.7502 26.192 28.3502C26.192 27.3129 27.0333 27.0954 27.7419 27.0954C28.6384 27.0954 29.1417 27.3154 29.66 27.9353L29.7176 28.0053L30.9245 27.2604L30.8594 27.1679C30.1708 26.198 29.1467 25.748 27.6368 25.748C25.7513 25.748 24.6695 26.7204 24.6695 28.4177C24.6695 29.1901 24.9074 29.7675 25.3932 30.1825C25.8139 30.5499 26.3722 30.7349 27.6017 30.9149C28.6183 31.0499 28.8387 31.0999 29.1717 31.2649C29.5123 31.4348 29.6976 31.7798 29.6976 32.2372C29.6976 33.1396 29.0165 33.5771 27.6142 33.5771C26.5225 33.5771 25.9541 33.3721 25.3631 32.7647L25.303 32.7022L24.1387 33.4446L24.2013 33.5346C24.8273 34.442 26.0242 34.9219 27.6668 34.9219C30.0256 34.9219 31.22 34.0295 31.22 32.2697C31.2275 31.3698 30.937 30.6624 30.4087 30.28Z" fill="#0F0D05"></path>
<path fill-rule="evenodd" clip-rule="evenodd" d="M38.5339 30.4163C38.5339 32.6685 38.003 33.5434 36.6383 33.5434C35.8646 33.5434 35.3412 33.206 35.0833 32.546C34.9256 32.1311 34.8655 31.6537 34.8655 30.8463V25.9219H33.293V30.9812C33.293 31.9661 33.3806 32.686 33.5559 33.1835C33.954 34.3383 34.9331 34.9233 36.4655 34.9233C37.5323 34.9233 38.2534 34.6308 38.7667 33.9859L38.8519 34.7683H40.1039V25.9219H38.5314V30.4163H38.5339Z" fill="#0F0D05"></path>
<path fill-rule="evenodd" clip-rule="evenodd" d="M46.316 25.75C45.407 25.75 44.7935 26 44.3102 26.5799L44.1976 25.9225H42.9355V34.7689H44.5081V30.4494C44.5081 28.1472 45.0114 27.1648 46.1958 27.1648C46.6189 27.1648 46.9244 27.2673 47.3601 27.5598L47.4603 27.6273L48.1238 26.2599L48.0362 26.2124C47.4503 25.885 46.952 25.75 46.316 25.75Z" fill="#0F0D05"></path>
<path fill-rule="evenodd" clip-rule="evenodd" d="M52.7997 25.75C51.4024 25.75 50.3508 26.1849 49.582 27.0773L49.5094 27.1623L50.6262 28.0122L50.6913 27.9372C51.1771 27.3873 51.8632 27.0948 52.682 27.0948C53.3656 27.0948 53.9115 27.3048 54.1794 27.6698C54.3972 27.9872 54.4724 28.3197 54.4724 28.9846V29.482H52.4917C49.9827 29.482 49.0938 30.2069 49.0938 32.2542C49.0938 34.1989 49.9451 34.9239 52.2313 34.9239C53.4557 34.9239 54.1268 34.7464 54.6777 34.2564L54.7628 34.7664H56.0424V29.1896C56.0424 28.0897 55.9522 27.5723 55.6668 27.0548C55.166 26.2024 54.1744 25.75 52.7997 25.75ZM54.4699 30.7269V31.9642C54.4699 32.5991 54.4223 32.8341 54.2495 33.0516C53.959 33.4215 53.4482 33.579 52.5393 33.579C51.0619 33.579 50.6112 33.2616 50.6112 32.2217C50.6112 31.1318 51.1571 30.7269 52.6269 30.7269H54.4699Z" fill="#0F0D05"></path>
<path fill-rule="evenodd" clip-rule="evenodd" d="M62.5248 25.75C61.4256 25.75 60.6794 26.0475 60.1535 26.7074L60.0684 25.9225H58.8164V34.7689H60.3889V30.2769C60.3889 28.0122 60.9448 27.1298 62.3696 27.1298C63.7067 27.1298 64.2301 27.8872 64.2301 29.8295V34.7689H65.8026V29.7095C65.8026 28.7021 65.72 28.0172 65.5372 27.4898C65.129 26.3349 64.1149 25.75 62.5248 25.75Z" fill="#0F0D05"></path>
<path fill-rule="evenodd" clip-rule="evenodd" d="M73.7174 32.7766C73.2692 33.3391 72.7308 33.579 71.9195 33.579C70.1968 33.579 69.8362 32.1392 69.8362 30.9319V29.987C69.8362 28.0172 70.4872 27.0973 71.8845 27.0973C72.6432 27.0973 73.0413 27.2998 73.5246 27.9322L73.5822 28.0047L74.8091 27.3023L74.7516 27.2098C74.1431 26.2274 73.1765 25.75 71.7993 25.75C69.4205 25.75 68.2637 27.1698 68.2637 30.087V30.7944C68.2637 33.5365 69.4706 34.9264 71.8519 34.9264C73.2567 34.9264 74.2257 34.4789 74.9018 33.5215L74.9669 33.429L73.775 32.7041L73.7174 32.7766Z" fill="#0F0D05"></path>
<path fill-rule="evenodd" clip-rule="evenodd" d="M83.7695 30.7269V30.002C83.7695 27.1023 82.6176 25.75 80.1462 25.75C77.6772 25.75 76.5254 27.1023 76.5254 30.002V30.7419C76.5254 33.5565 77.7549 34.9264 80.2864 34.9264C81.8339 34.9264 82.7954 34.5164 83.5066 33.559L83.5742 33.469L82.3848 32.7041L82.3247 32.7766C81.8439 33.3565 81.3105 33.5815 80.4241 33.5815C78.9142 33.5815 78.1154 32.6841 78.1154 30.9868V30.7319H83.7695V30.7269ZM78.1154 29.452C78.1154 28.8896 78.2431 28.3297 78.4635 27.9222C78.8065 27.3348 79.3098 27.0973 80.1988 27.0973C80.98 27.0973 81.4608 27.3048 81.8013 27.7922C82.0793 28.1822 82.247 28.8021 82.247 29.452V29.4845H78.1154V29.452Z" fill="#0F0D05"></path>
<path fill-rule="evenodd" clip-rule="evenodd" d="M145.816 18.874L145.549 19.433C145.287 19.2846 144.932 19.1856 144.636 19.1856C144.296 19.1856 144.102 19.3143 144.102 19.5467C144.102 19.7496 144.253 19.8534 144.491 19.9326L144.961 20.0909C145.539 20.2887 145.937 20.5459 145.937 21.1148C145.937 21.7628 145.423 22.1437 144.602 22.1437C144.078 22.1437 143.568 21.9854 143.229 21.743L143.534 21.1593C143.86 21.3869 144.262 21.5303 144.602 21.5303C144.957 21.5303 145.17 21.3819 145.17 21.1445C145.17 20.9219 144.991 20.8081 144.758 20.7339L144.287 20.5806C143.622 20.353 143.34 20.0513 143.34 19.5863C143.34 18.9581 143.83 18.5723 144.607 18.5723C145.034 18.5723 145.476 18.691 145.816 18.874Z" fill="#0F0D05"></path>
<path fill-rule="evenodd" clip-rule="evenodd" d="M150.371 22.092H149.608L149.434 19.9774L148.599 22.05H148.079L147.249 19.9774L147.07 22.0896H146.312L146.628 18.627H147.38L148.342 20.9766L149.298 18.627H150.055L150.371 22.092Z" fill="#0F0D05"></path>
</svg>