<svg width="99" height="40" viewBox="0 0 99 40" fill="none" xmlns="http://www.w3.org/2000/svg">
<path fill-rule="evenodd" clip-rule="evenodd" d="M12.2828 17.3639H18.3648C21.6229 17.3639 23.4148 15.9398 23.4148 13.2011C23.4148 10.6265 21.7858 8.98323 18.5277 8.98323H12.2828V17.3639ZM0.933594 0H20.2111C28.1393 0 34.8727 3.67011 34.8727 11.6674C34.8727 16.1589 32.592 19.3361 28.5194 21.1984V21.3627C31.6689 22.5677 33.2979 24.7587 33.9495 27.8263C34.9813 32.5367 34.1125 38.1787 35.5245 38.5623V39.1646H24.338C23.2519 38.3978 23.6863 33.5776 22.8718 30.0721C22.1659 27.0592 20.8627 25.5256 17.5501 25.5256H12.2828V39.1646H0.933594V0Z" fill="#0F0D05"></path>
<path fill-rule="evenodd" clip-rule="evenodd" d="M49.6942 29.5517V31.1422C49.6942 33.7235 47.9014 34.6432 46.2235 34.6432C45.1069 34.6432 43.9134 34.145 43.9134 32.7469C43.9134 31.6767 44.3783 30.9943 46.8307 30.4546C47.9713 30.2028 48.9125 29.9064 49.6942 29.5517ZM58.7243 38.6242C58.1236 38.2455 58.0139 37.2824 58.0139 35.5221V24.4641C58.0139 21.3931 56.8353 19.096 54.5101 17.6353C52.8068 16.5779 50.6241 16.127 47.2122 16.127C39.6123 16.127 36.7384 20.3619 36.5829 24.3253L36.5736 24.5624H44.7017L44.7281 24.3648C44.9458 22.7407 45.8393 21.9171 47.3842 21.9171C48.8134 21.9171 49.4793 22.5198 49.4793 23.8139C49.4793 24.9253 48.658 25.5132 43.7908 26.0587C40.2904 26.4551 35.6367 27.6154 35.6367 33.0936C35.6367 37.3267 38.5237 39.9563 43.1713 39.9563C46.0054 39.9563 48.2602 39.0058 49.7221 37.2014C49.8757 38.0753 50.0938 38.7278 50.4128 39.2796L50.4784 39.3928H58.8307V38.6913L58.7243 38.6242Z" fill="#0F0D05"></path>
<path fill-rule="evenodd" clip-rule="evenodd" d="M82.7661 25.5374C83.2478 23.2215 84.4705 22.0478 86.4038 22.0478C88.1567 22.0478 89.4103 23.3464 89.7932 25.5374H82.7661ZM98.366 30.1065C98.4576 25.4488 97.0725 21.553 94.4665 19.1361C92.2723 17.1108 89.5017 16.084 86.2317 16.084C79.3252 16.084 74.3125 21.1223 74.3125 28.0638C74.3125 35.0918 79.3377 40.0003 86.5326 40.0003C89.4219 40.0003 91.6206 39.4142 93.6619 38.0996C95.891 36.6607 97.4465 34.666 97.93 32.6265L97.9965 32.3454H89.7104L89.6456 32.462C89.0816 33.4781 88.1211 33.9934 86.7907 33.9934C84.6463 33.9934 83.294 32.7612 82.7681 30.3301H98.3617L98.366 30.1065Z" fill="#0F0D05"></path>
<path fill-rule="evenodd" clip-rule="evenodd" d="M74.2409 22.2199V16.8201H70.0708V9.55469L61.6654 13.9115V16.8201H58.8281V22.2199H61.6654V32.7893C61.6654 38.6289 64.9694 39.8258 69.9305 39.8258C71.236 39.8258 72.4854 39.6633 73.9816 39.2988L74.1549 39.2568V32.8053L73.9135 32.8219C72.3637 32.9278 71.131 32.9641 70.531 32.3981C70.2212 32.1062 70.0708 31.6386 70.0708 30.9681V22.2199H74.2409Z" fill="#0F0D05"></path>
<path fill-rule="evenodd" clip-rule="evenodd" d="M46.9326 0.0195312V8.41462H42.8652L55.5501 14.9896L68.2349 8.41462H64.1747V0.0195312H46.9326Z" fill="#D03138"></path>
</svg>