<svg width="151" height="30" viewBox="0 0 151 30" fill="none" xmlns="http://www.w3.org/2000/svg">
<path fill-rule="evenodd" clip-rule="evenodd" d="M22.497 16.8265C22.497 11.6749 18.3338 7.50702 13.188 7.50702C8.04219 7.50702 3.83339 11.6749 3.83339 16.8265C3.83339 21.9782 8.04219 26.1918 13.188 26.1918C18.3338 26.1918 22.497 21.9782 22.497 16.8265ZM25.9593 16.8265C25.9593 23.8962 20.2536 29.6578 13.188 29.6578C6.12633 29.6578 0.371094 23.8962 0.371094 16.8265C0.371094 9.75309 6.12633 4.04102 13.188 4.04102C20.2536 4.04102 25.9593 9.75309 25.9593 16.8265Z" fill="#0F0D05"></path>
<path fill-rule="evenodd" clip-rule="evenodd" d="M31.265 5.00736V20.3302C31.265 23.4999 33.7797 26.1539 36.9458 26.1917C40.1632 26.2302 42.7261 23.6418 42.7261 20.4343V8.76973C42.7261 8.28896 43.1154 7.89909 43.5958 7.89909H45.3645C45.8447 7.89909 46.2341 8.28896 46.2341 8.76973V20.48C46.2341 23.6519 48.7855 26.1731 51.9043 26.192C55.0894 26.2114 57.695 23.5058 57.695 20.317V5.00736C57.695 4.52659 58.0843 4.13672 58.5647 4.13672H60.2877C60.7679 4.13672 61.1573 4.52659 61.1573 5.00736V20.278C61.1573 25.1196 57.4891 29.2509 52.6679 29.6297C49.3454 29.8907 46.2688 28.3455 44.5009 25.8185C42.8028 28.1799 40.0587 29.6842 36.9364 29.6579C31.8562 29.6156 27.8027 25.3813 27.8027 20.2952V5.00736C27.8027 4.52659 28.1922 4.13672 28.6724 4.13672H30.3954C30.8756 4.13672 31.265 4.52659 31.265 5.00736Z" fill="#0F0D05"></path>
<path fill-rule="evenodd" clip-rule="evenodd" d="M88.2802 29.4247H86.5572C86.077 29.4247 85.6876 29.035 85.6876 28.554V16.9174C85.6876 11.7697 81.5245 7.55235 76.3786 7.55235C71.2328 7.55235 67.0697 11.7697 67.0697 16.9174V28.554C67.0697 29.035 66.6803 29.4247 66.2001 29.4247H64.4771C63.9967 29.4247 63.6074 29.035 63.6074 28.554V17.0355C63.6074 9.9755 69.2541 4.1257 76.306 4.08614C83.4011 4.04664 89.1499 9.82367 89.1499 16.9174V28.554C89.1499 29.035 88.7606 29.4247 88.2802 29.4247Z" fill="#0F0D05"></path>
<mask id="mask0_1045_1856" style="mask-type:luminance" maskUnits="userSpaceOnUse" x="90" y="0" width="6" height="30">
<path d="M90.9395 0.341797H95.6167V29.4249H90.9395V0.341797Z" fill="white"></path>
</mask>
<g mask="url(#mask0_1045_1856)">
<path fill-rule="evenodd" clip-rule="evenodd" d="M95.011 8.76904V28.5543C95.011 29.0352 94.6218 29.4249 94.1414 29.4249H92.4186C91.9382 29.4249 91.5489 29.0352 91.5489 28.5543V8.76904C91.5489 8.28828 91.9382 7.89841 92.4186 7.89841H94.1414C94.6218 7.89841 95.011 8.28828 95.011 8.76904ZM93.278 5.02443C91.9716 5.02443 90.9395 3.99499 90.9395 2.68311C90.9395 1.41721 91.9716 0.341797 93.278 0.341797C94.5882 0.341797 95.6167 1.41721 95.6167 2.68311C95.6167 3.99499 94.5882 5.02443 93.278 5.02443Z" fill="#0F0D05"></path>
</g>
<path fill-rule="evenodd" clip-rule="evenodd" d="M122.118 29.4247H120.395C119.915 29.4247 119.526 29.035 119.526 28.554V16.9174C119.526 11.7697 115.363 7.55235 110.217 7.55235C105.071 7.55235 100.908 11.7697 100.908 16.9174V28.554C100.908 29.035 100.518 29.4247 100.038 29.4247H98.315C97.8349 29.4247 97.4453 29.035 97.4453 28.554V17.0355C97.4453 9.9755 103.092 4.1257 110.144 4.08614C117.239 4.04664 122.988 9.82367 122.988 16.9174V28.554C122.988 29.035 122.599 29.4247 122.118 29.4247Z" fill="#0F0D05"></path>
<mask id="mask1_1045_1856" style="mask-type:luminance" maskUnits="userSpaceOnUse" x="124" y="4" width="27" height="26">
<path d="M124.783 4.04102H150.372V29.6579H124.783V4.04102Z" fill="white"></path>
</mask>
<g mask="url(#mask1_1045_1856)">
<path fill-rule="evenodd" clip-rule="evenodd" d="M138.516 15.0953H149.471C149.929 15.0953 150.311 15.4505 150.339 15.908C150.359 16.2183 150.372 16.5294 150.372 16.8265C150.372 24.1231 144.294 30.0267 136.916 29.64C130.408 29.2989 125.142 24.0267 124.801 17.512C124.415 10.1257 130.312 4.04102 137.6 4.04102C142.49 4.04102 146.758 6.78404 148.918 10.859C149.103 11.2079 148.852 11.6291 148.457 11.6291H145.813C145.54 11.6291 145.283 11.5012 145.12 11.2826C143.252 8.78094 140.152 7.23521 136.728 7.5469C132.218 7.95749 128.601 11.6107 128.271 16.1324C127.872 21.5941 132.225 26.1918 137.6 26.1918C142.063 26.1918 145.804 23.0178 146.725 18.7684C146.749 18.6602 146.664 18.5577 146.554 18.5577H138.516C138.035 18.5577 137.646 18.168 137.646 17.687V15.966C137.646 15.4852 138.035 15.0953 138.516 15.0953Z" fill="#0F0D05"></path>
</g>
</svg>