<svg width="48" height="48" viewBox="0 0 48 48" fill="none" xmlns="http://www.w3.org/2000/svg">
<path d="M9.16638 27.4726C9.28988 27.1296 9.38593 26.7591 9.52315 26.4297C10.1955 24.8243 10.0583 23.2599 9.37221 21.6956C7.65694 17.7848 5.99657 13.8328 4.19897 9.94947C2.86792 7.06783 1.4271 4.21363 0 1.3457V48.0009L0.590051 47.4109C0.795883 46.9718 0.987993 46.5464 1.1801 46.121C3.99314 39.9735 6.84734 33.8397 9.16638 27.4726Z" fill="white"></path>
<path d="M36.7217 12.8029C36.9275 12.2952 37.1745 11.8149 37.4627 11.1837C37.2019 11.2935 37.0922 11.3346 36.9824 11.3758C34.3477 12.4736 31.7405 13.6262 29.0784 14.6554C26.1831 15.7806 23.2191 15.8904 20.2688 14.8063C18.5261 14.1614 16.7971 13.5302 15.0819 12.8303C13.8881 12.3501 12.7354 11.76 11.3906 11.1562C11.569 11.5267 11.6651 11.7463 11.7611 11.9796C12.804 14.477 13.9018 16.9607 14.8623 19.4993C15.8778 22.1751 16.1934 24.947 15.2191 27.7189C14.3683 30.0928 13.4352 32.4393 12.5158 34.7995C12.214 35.5679 11.8297 36.3089 11.4043 37.2146C11.7474 37.0773 11.9121 37.0087 12.063 36.9401C14.6977 35.8561 17.3186 34.7034 19.9807 33.688C22.6702 32.6725 25.4421 32.5079 28.2002 33.4821C30.1762 34.182 32.1385 34.923 34.087 35.7051C35.1848 36.1442 36.2551 36.6931 37.4489 37.242C37.3254 36.9401 37.2431 36.7617 37.1608 36.5696C36.0356 33.8115 34.8555 31.0808 33.7988 28.2952C32.8383 25.7291 32.7422 23.0808 33.6891 20.4873C34.6222 17.9075 35.6925 15.3552 36.7079 12.8029H36.7217Z" fill="white"></path>
<path d="M1.42819 0.315609C7.72665 3.25214 14.0114 6.21612 20.5157 8.71355C20.598 8.74099 20.6666 8.76844 20.7489 8.79588C24.5088 10.1544 24.7284 10.2504 29.0234 8.45283C35.2669 5.8319 41.4556 3.06003 47.658 0.343053L48.0011 0H0.769531C0.989085 0.109777 1.20864 0.205832 1.42819 0.315609Z" fill="white"></path>
</svg>