<svg width="120" height="30" viewBox="0 0 120 30" fill="none" xmlns="http://www.w3.org/2000/svg">
<path d="M5.34324 17.0228C5.41523 16.8228 5.47122 16.6069 5.55121 16.4149C5.94315 15.479 5.86316 14.5671 5.46322 13.6553C4.46336 11.3756 3.4955 9.07193 2.44765 6.80825C1.67176 5.12849 0.831881 3.46473 0 1.79297V28.9891L0.343951 28.6451C0.463934 28.3892 0.575918 28.1412 0.687902 27.8932C2.32767 24.3097 3.99143 20.7343 5.34324 17.0228Z" fill="#FFC772"></path>
<path d="M21.4046 8.47353C21.5245 8.17758 21.6685 7.89762 21.8365 7.52967C21.6845 7.59366 21.6205 7.61766 21.5565 7.64165C20.0208 8.28156 18.501 8.95347 16.9492 9.55338C15.2614 10.2093 13.5337 10.2733 11.8139 9.64137C10.7981 9.26542 9.79022 8.89747 8.79036 8.48953C8.09446 8.20957 7.42256 7.86562 6.63867 7.51367C6.74266 7.72964 6.79865 7.85762 6.85464 7.9936C7.46255 9.44939 8.10246 10.8972 8.66238 12.377C9.2543 13.9368 9.43827 15.5525 8.87035 17.1683C8.37442 18.5521 7.8305 19.9199 7.29458 21.2957C7.1186 21.7436 6.89464 22.1756 6.64667 22.7035C6.84664 22.6235 6.94263 22.5835 7.03062 22.5435C8.5664 21.9116 10.0942 21.2397 11.646 20.6478C13.2137 20.0559 14.8295 19.9599 16.4373 20.5278C17.5891 20.9358 18.7329 21.3677 19.8688 21.8236C20.5087 22.0796 21.1326 22.3995 21.8285 22.7195C21.7565 22.5435 21.7085 22.4395 21.6605 22.3276C21.0046 20.7198 20.3167 19.128 19.7008 17.5042C19.1409 16.0085 19.0849 14.4647 19.6368 12.9529C20.1807 11.4491 20.8046 9.96132 21.3966 8.47353H21.4046Z" fill="#FF782E"></path>
<path d="M0.831211 1.19374C4.50269 2.90549 8.16616 4.63325 11.9576 6.08904C12.0056 6.10504 12.0456 6.12104 12.0936 6.13703C14.2853 6.92892 14.4133 6.98491 16.9169 5.93706C20.5564 4.40928 24.1639 2.79351 27.7794 1.20974L27.9793 1.00977H0.447266C0.575247 1.07376 0.703229 1.12975 0.831211 1.19374Z" fill="#FFC772"></path>
<path d="M36.8886 28.982H33.7761V6.53606H36.8886V8.73575C37.3874 7.96761 38.0259 7.34411 38.804 6.86526C39.5822 6.38642 40.4999 6.14699 41.5574 6.14699C42.6448 6.14699 43.6623 6.3515 44.61 6.76051C45.5677 7.16953 46.4057 7.73816 47.124 8.4664C47.8423 9.18467 48.4059 10.0177 48.8149 10.9654C49.2239 11.9131 49.4284 12.9306 49.4284 14.018C49.4284 15.1054 49.2239 16.1279 48.8149 17.0856C48.4059 18.0433 47.8423 18.8863 47.124 19.6145C46.4057 20.3328 45.5677 20.8965 44.61 21.3055C43.6623 21.7145 42.6448 21.919 41.5574 21.919C40.4999 21.919 39.5822 21.6796 38.804 21.2007C38.0259 20.7119 37.3874 20.0884 36.8886 19.3302V28.982ZM41.5275 9.15475C40.6596 9.15475 39.8964 9.37422 39.238 9.81316C38.5796 10.2521 38.0658 10.8407 37.6967 11.5789C37.3276 12.3071 37.143 13.1202 37.143 14.018C37.143 14.9159 37.3276 15.7339 37.6967 16.4721C38.0658 17.2103 38.5796 17.7989 39.238 18.2379C39.8964 18.6768 40.6596 18.8963 41.5275 18.8963C42.3854 18.8963 43.1735 18.6818 43.8918 18.2528C44.61 17.8139 45.1837 17.2253 45.6126 16.4871C46.0416 15.7489 46.2561 14.9258 46.2561 14.018C46.2561 13.1302 46.0416 12.3171 45.6126 11.5789C45.1936 10.8407 44.625 10.2521 43.9067 9.81316C43.1885 9.37422 42.3954 9.15475 41.5275 9.15475ZM51.8673 21.5V6.53606H54.9798V8.12223C55.4986 7.50372 56.137 7.0149 56.8952 6.65577C57.6534 6.29663 58.4714 6.11707 59.3493 6.11707C59.9079 6.11707 60.4616 6.19188 61.0103 6.34152L59.7683 9.48395C59.3792 9.33431 58.9902 9.25949 58.6011 9.25949C57.9427 9.25949 57.3391 9.4241 56.7905 9.7533C56.2418 10.0725 55.8028 10.5065 55.4736 11.0552C55.1444 11.6038 54.9798 12.2124 54.9798 12.8808V21.5H51.8673ZM73.6801 6.53606H76.7926V21.5H73.6651L73.5454 19.3302C73.1065 20.0984 72.5129 20.7169 71.7647 21.1858C71.0165 21.6546 70.1336 21.8891 69.1161 21.8891C68.0187 21.8891 66.9862 21.6846 66.0185 21.2755C65.0509 20.8566 64.1979 20.2779 63.4597 19.5397C62.7315 18.8015 62.1628 17.9535 61.7538 16.9959C61.3448 16.0282 61.1403 14.9907 61.1403 13.8834C61.1403 12.8159 61.3398 11.8133 61.7388 10.8756C62.1379 9.92788 62.6915 9.09988 63.3998 8.39158C64.1081 7.68329 64.9262 7.12962 65.8539 6.73059C66.7917 6.32157 67.7943 6.11707 68.8617 6.11707C69.9491 6.11707 70.9068 6.36646 71.7348 6.86526C72.5727 7.35408 73.2661 7.98257 73.8147 8.75072L73.6801 6.53606ZM69.0413 18.8813C69.9191 18.8813 70.6873 18.6668 71.3457 18.2379C72.0041 17.7989 72.5129 17.2103 72.872 16.4721C73.2411 15.7339 73.4257 14.9159 73.4257 14.018C73.4257 13.1102 73.2411 12.2872 72.872 11.549C72.5029 10.8108 71.9891 10.2272 71.3307 9.79819C70.6823 9.35925 69.9191 9.13978 69.0413 9.13978C68.1733 9.13978 67.3803 9.35925 66.662 9.79819C65.9437 10.2371 65.3751 10.8257 64.9561 11.5639C64.5371 12.3022 64.3276 13.1202 64.3276 14.018C64.3276 14.9258 64.5421 15.7489 64.9711 16.4871C65.41 17.2153 65.9836 17.7989 66.6919 18.2379C67.4102 18.6668 68.1933 18.8813 69.0413 18.8813ZM77.1657 28.982V25.8695C77.7942 25.8695 78.3579 25.7248 78.8567 25.4355C79.3654 25.1562 79.7645 24.7671 80.0538 24.2683C80.3531 23.7695 80.5027 23.2159 80.5027 22.6073V6.53606H83.6152V22.6073C83.6152 23.7745 83.3309 24.8419 82.7622 25.8096C82.1936 26.7773 81.4205 27.5454 80.4428 28.1141C79.4752 28.6927 78.3828 28.982 77.1657 28.982ZM82.0889 4.36628C81.61 4.36628 81.211 4.21166 80.8918 3.9024C80.5725 3.59315 80.4129 3.20408 80.4129 2.73521C80.4129 2.27632 80.5725 1.89224 80.8918 1.58299C81.211 1.26376 81.605 1.10414 82.0739 1.10414C82.5328 1.10414 82.9219 1.26376 83.2411 1.58299C83.5603 1.89224 83.7199 2.27632 83.7199 2.73521C83.7199 3.20408 83.5603 3.59315 83.2411 3.9024C82.9318 4.21166 82.5478 4.36628 82.0889 4.36628ZM100.67 12.1176V21.5H97.5571V12.8808C97.5571 12.2124 97.3925 11.6038 97.0633 11.0552C96.7441 10.5065 96.3102 10.0725 95.7615 9.7533C95.2228 9.4241 94.6142 9.25949 93.9359 9.25949C93.2775 9.25949 92.6739 9.4241 92.1252 9.7533C91.5766 10.0725 91.1376 10.5065 90.8084 11.0552C90.4792 11.6038 90.3146 12.2124 90.3146 12.8808V21.5H87.2021V6.53606H90.3146V8.12223C90.8333 7.50372 91.4718 7.0149 92.23 6.65577C92.9882 6.29663 93.8062 6.11707 94.6841 6.11707C95.7914 6.11707 96.799 6.38642 97.7068 6.92512C98.6146 7.46382 99.3329 8.18708 99.8616 9.09489C100.4 10.0027 100.67 11.0103 100.67 12.1176ZM115.006 6.53606H118.119V21.5H114.991L114.872 19.3302C114.433 20.0984 113.839 20.7169 113.091 21.1858C112.343 21.6546 111.46 21.8891 110.442 21.8891C109.345 21.8891 108.312 21.6846 107.345 21.2755C106.377 20.8566 105.524 20.2779 104.786 19.5397C104.058 18.8015 103.489 17.9535 103.08 16.9959C102.671 16.0282 102.466 14.9907 102.466 13.8834C102.466 12.8159 102.666 11.8133 103.065 10.8756C103.464 9.92788 104.018 9.09988 104.726 8.39158C105.434 7.68329 106.252 7.12962 107.18 6.73059C108.118 6.32157 109.12 6.11707 110.188 6.11707C111.275 6.11707 112.233 6.36646 113.061 6.86526C113.899 7.35408 114.592 7.98257 115.141 8.75072L115.006 6.53606ZM110.367 18.8813C111.245 18.8813 112.013 18.6668 112.672 18.2379C113.33 17.7989 113.839 17.2103 114.198 16.4721C114.567 15.7339 114.752 14.9159 114.752 14.018C114.752 13.1102 114.567 12.2872 114.198 11.549C113.829 10.8108 113.315 10.2272 112.657 9.79819C112.009 9.35925 111.245 9.13978 110.367 9.13978C109.5 9.13978 108.706 9.35925 107.988 9.79819C107.27 10.2371 106.701 10.8257 106.282 11.5639C105.863 12.3022 105.654 13.1202 105.654 14.018C105.654 14.9258 105.868 15.7489 106.297 16.4871C106.736 17.2153 107.31 17.7989 108.018 18.2379C108.736 18.6668 109.519 18.8813 110.367 18.8813Z" fill="#0F0D05"></path>
</svg>