<svg width="94" height="123" viewBox="0 0 94 123" fill="none" xmlns="http://www.w3.org/2000/svg">
<g clip-path="url(#clip0_3519_5203)">
<path d="M1.62061 87.7267V2.43144C1.62061 1.9839 1.98341 1.62109 2.43095 1.62109H91.5689C92.0162 1.62109 92.3792 1.9839 92.3792 2.43144V87.7267C92.3792 87.9877 92.2536 88.2324 92.0413 88.3847L47.4727 120.402C47.1902 120.605 46.8096 120.605 46.5272 120.402L1.95817 88.3847C1.74625 88.2324 1.62061 87.9877 1.62061 87.7267Z" fill="white" stroke="url(#paint0_linear_3519_5203)" stroke-width="4"></path>
<path d="M23.9094 29.4834C22.7684 29.4834 21.783 29.2824 20.9532 28.8805C20.1234 28.4785 19.4687 27.921 18.9889 27.2079C18.5222 26.4818 18.2499 25.6391 18.1721 24.6796L20.7393 24.524C20.8171 25.1205 20.9856 25.6261 21.2449 26.041C21.5172 26.4559 21.8738 26.7736 22.3146 26.994C22.7684 27.2014 23.3129 27.3051 23.9483 27.3051C24.4928 27.3051 24.9531 27.2403 25.3291 27.1107C25.7181 26.968 26.0098 26.7671 26.2043 26.5078C26.4117 26.2355 26.5154 25.9049 26.5154 25.5159C26.5154 25.1658 26.4312 24.8547 26.2626 24.5824C26.0941 24.2971 25.7699 24.0443 25.2902 23.8239C24.8105 23.5905 24.0974 23.3636 23.1509 23.1432C22.0099 22.8839 21.0958 22.5922 20.4087 22.268C19.7215 21.9309 19.2223 21.516 18.9112 21.0234C18.6 20.5177 18.4444 19.8889 18.4444 19.1369C18.4444 18.333 18.6454 17.6264 19.0473 17.017C19.4492 16.3947 20.0197 15.9149 20.7587 15.5778C21.4978 15.2278 22.3859 15.0527 23.4232 15.0527C24.5252 15.0527 25.4587 15.2537 26.2237 15.6556C26.9887 16.0446 27.5916 16.5827 28.0324 17.2698C28.4732 17.957 28.7455 18.7479 28.8492 19.6425L26.3015 19.7592C26.2367 19.2536 26.0811 18.8127 25.8347 18.4367C25.6014 18.0607 25.2772 17.769 24.8623 17.5616C24.4604 17.3411 23.9677 17.2309 23.3843 17.2309C22.6582 17.2309 22.0812 17.3995 21.6534 17.7366C21.2385 18.0607 21.031 18.4951 21.031 19.0396C21.031 19.4156 21.1153 19.7268 21.2838 19.9731C21.4654 20.2195 21.783 20.4334 22.2368 20.6149C22.6906 20.7835 23.3259 20.965 24.1427 21.1595C25.3745 21.4188 26.3534 21.7494 27.0794 22.1514C27.8055 22.5533 28.3241 23.02 28.6353 23.5516C28.9465 24.0832 29.1021 24.6926 29.1021 25.3798C29.1021 26.2225 28.8881 26.9551 28.4603 27.5774C28.0324 28.1868 27.4295 28.66 26.6516 28.9971C25.8736 29.3213 24.9596 29.4834 23.9094 29.4834ZM37.9309 29.4834C36.5695 29.4834 35.3962 29.1981 34.4108 28.6276C33.4254 28.0442 32.6669 27.2144 32.1353 26.1383C31.6167 25.0621 31.3574 23.7785 31.3574 22.2875C31.3574 20.7965 31.6167 19.5129 32.1353 18.4367C32.6669 17.3476 33.4254 16.5114 34.4108 15.9279C35.3962 15.3445 36.5695 15.0527 37.9309 15.0527C39.3182 15.0527 40.4981 15.3445 41.4705 15.9279C42.4559 16.5114 43.2079 17.3476 43.7265 18.4367C44.2581 19.5129 44.5239 20.7965 44.5239 22.2875C44.5239 23.7785 44.2581 25.0621 43.7265 26.1383C43.2079 27.2144 42.4559 28.0442 41.4705 28.6276C40.4981 29.1981 39.3182 29.4834 37.9309 29.4834ZM37.9309 27.2857C38.7737 27.2857 39.4868 27.0912 40.0702 26.7023C40.6666 26.3003 41.1204 25.7298 41.4316 24.9908C41.7558 24.2388 41.9178 23.3377 41.9178 22.2875C41.9178 21.2373 41.7558 20.3362 41.4316 19.5842C41.1204 18.8322 40.6666 18.2552 40.0702 17.8533C39.4868 17.4514 38.7737 17.2504 37.9309 17.2504C37.1141 17.2504 36.4075 17.4514 35.8111 17.8533C35.2146 18.2552 34.7544 18.8322 34.4302 19.5842C34.1191 20.3362 33.9635 21.2373 33.9635 22.2875C33.9635 23.3377 34.1191 24.2388 34.4302 24.9908C34.7544 25.7298 35.2146 26.3003 35.8111 26.7023C36.4075 27.0912 37.1141 27.2857 37.9309 27.2857ZM52.978 29.4834C51.7203 29.4834 50.6118 29.1981 49.6523 28.6276C48.6929 28.0442 47.9409 27.2209 47.3963 26.1577C46.8518 25.0816 46.5795 23.7915 46.5795 22.2875C46.5795 20.8094 46.8453 19.5323 47.3769 18.4562C47.9085 17.3671 48.654 16.5308 49.6134 15.9474C50.5729 15.3509 51.7009 15.0527 52.9974 15.0527C54.7607 15.0527 56.1286 15.4936 57.101 16.3752C58.0734 17.2439 58.7087 18.4627 59.0069 20.0315L56.362 20.1676C56.1934 19.26 55.8304 18.5469 55.2729 18.0283C54.7154 17.5097 53.9569 17.2504 52.9974 17.2504C52.2195 17.2504 51.5453 17.4578 50.9748 17.8727C50.4043 18.2876 49.9635 18.8711 49.6523 19.6231C49.3411 20.3751 49.1856 21.2632 49.1856 22.2875C49.1856 23.3247 49.3411 24.2194 49.6523 24.9714C49.9765 25.7104 50.4238 26.2809 50.9942 26.6828C51.5647 27.0847 52.226 27.2857 52.978 27.2857C54.0022 27.2857 54.7931 27.0069 55.3507 26.4494C55.9211 25.8789 56.2842 25.101 56.4398 24.1156L59.0847 24.2518C58.9032 25.3279 58.5532 26.2614 58.0345 27.0523C57.5159 27.8303 56.8287 28.4331 55.973 28.861C55.1302 29.2759 54.1319 29.4834 52.978 29.4834ZM66.3382 29.1722C66.3382 28.0571 66.4938 27.0847 66.805 26.2549C67.1161 25.4122 67.6412 24.6472 68.3803 23.96C69.1193 23.2599 70.1177 22.5792 71.3753 21.918C71.9977 21.5809 72.4968 21.2827 72.8728 21.0234C73.2488 20.764 73.5211 20.4983 73.6897 20.226C73.8582 19.9407 73.9425 19.6036 73.9425 19.2147C73.9425 18.8257 73.8582 18.4886 73.6897 18.2034C73.5211 17.9051 73.2683 17.6718 72.9312 17.5032C72.607 17.3347 72.1986 17.2504 71.7059 17.2504C70.915 17.2504 70.2862 17.4773 69.8195 17.9311C69.3657 18.3719 69.0869 19.0072 68.9832 19.837L66.3771 19.6814C66.5068 18.2423 67.0319 17.1143 67.9524 16.2974C68.8859 15.4676 70.1371 15.0527 71.7059 15.0527C72.7172 15.0527 73.5859 15.2278 74.312 15.5778C75.0381 15.9149 75.5891 16.3947 75.9651 17.017C76.3541 17.6394 76.5486 18.3589 76.5486 19.1758C76.5486 19.8759 76.4254 20.4788 76.179 20.9845C75.9457 21.4901 75.5567 21.9569 75.0121 22.3847C74.4806 22.7996 73.761 23.2469 72.8534 23.7267C71.7124 24.336 70.8567 24.926 70.2862 25.4965C69.7157 26.054 69.411 26.5467 69.3721 26.9745H76.5486V29.1722H66.3382Z" fill="#16171B"></path>
<path d="M21.4655 59.2919C20.9152 59.2919 20.4246 59.1671 19.9935 58.9175C19.568 58.6679 19.2334 58.3077 18.9894 57.8369C18.7512 57.3661 18.6321 56.8017 18.6321 56.1437C18.6321 55.5027 18.7484 54.9468 18.9809 54.476C19.2135 53.9995 19.5453 53.6308 19.9764 53.3699C20.4075 53.109 20.9124 52.9785 21.491 52.9785C22.2794 52.9785 22.8921 53.1742 23.3288 53.5656C23.7713 53.9513 24.0549 54.5044 24.1797 55.2248L22.8353 55.2758C22.7673 54.8958 22.6198 54.6008 22.3929 54.3909C22.166 54.1754 21.8654 54.0676 21.491 54.0676C21.1676 54.0676 20.8925 54.1527 20.6656 54.3229C20.4387 54.4931 20.2657 54.7341 20.1466 55.0461C20.0275 55.3581 19.9679 55.724 19.9679 56.1437C19.9679 56.5692 20.0275 56.9379 20.1466 57.2498C20.2714 57.5562 20.4473 57.7916 20.6741 57.9561C20.901 58.1206 21.1705 58.2028 21.4825 58.2028C21.8909 58.2028 22.2057 58.0894 22.4269 57.8625C22.6538 57.6299 22.7956 57.3094 22.8524 56.901L24.2052 56.952C24.1258 57.4455 23.9698 57.8653 23.7373 58.2113C23.5047 58.5573 23.1984 58.8239 22.8183 59.0111C22.4439 59.1983 21.993 59.2919 21.4655 59.2919ZM27.0102 59.1558V53.1147H31.2134V54.2038H28.3035V55.5907H31.1113V56.6627H28.3035V58.0667H31.2815V59.1558H27.0102ZM34.2351 59.1558V53.1147H36.8813C37.3237 53.1147 37.7066 53.1884 38.03 53.3359C38.359 53.4834 38.6114 53.6932 38.7872 53.9655C38.9631 54.2321 39.051 54.5498 39.051 54.9185C39.051 55.1964 38.9914 55.4432 38.8723 55.6587C38.7589 55.8743 38.6 56.0501 38.3958 56.1863C38.1973 56.3224 37.9676 56.4075 37.7066 56.4415L37.6811 56.3649C38.0838 56.3649 38.3901 56.4529 38.6 56.6287C38.8099 56.7989 38.929 57.0627 38.9574 57.42L39.1105 59.1558H37.7917L37.6811 57.6242C37.6641 57.3917 37.5903 57.2215 37.4599 57.1137C37.3351 57.0003 37.1195 56.9435 36.8132 56.9435H35.5284V59.1558H34.2351ZM35.5284 55.8629H36.7366C37.0486 55.8629 37.2897 55.792 37.4599 55.6502C37.6357 55.5027 37.7236 55.2957 37.7236 55.0291C37.7236 54.7568 37.6357 54.5526 37.4599 54.4165C37.284 54.2747 37.0288 54.2038 36.6941 54.2038H35.5284V55.8629ZM43.2431 59.1558V54.2038H41.4393V53.1147H46.3573V54.2038H44.545V59.1558H43.2431ZM48.868 59.1558V53.1147H50.1613V59.1558H48.868ZM53.2596 59.1558V53.1147H57.4288V54.2038H53.8382L54.5529 53.4635V56.2288L53.8382 55.6672H57.2756V56.7393H53.8382L54.5529 56.1778V59.1558H53.2596ZM60.2353 59.1558V53.1147H61.5286V59.1558H60.2353ZM64.6268 59.1558V53.1147H68.8301V54.2038H65.9202V55.5907H68.728V56.6627H65.9202V58.0667H68.8982V59.1558H64.6268ZM71.8519 59.1558V53.1147H73.9365C74.9178 53.1147 75.6723 53.3784 76.1998 53.906C76.7273 54.4278 76.9911 55.1737 76.9911 56.1437C76.9911 57.108 76.7302 57.8511 76.2083 58.373C75.6921 58.8948 74.9519 59.1558 73.9875 59.1558H71.8519ZM73.1452 58.0667H73.9365C74.5208 58.0667 74.9519 57.9107 75.2298 57.5987C75.5134 57.281 75.6552 56.7932 75.6552 56.1352C75.6552 55.4772 75.5134 54.9922 75.2298 54.6802C74.9519 54.3626 74.5208 54.2038 73.9365 54.2038H73.1452V58.0667Z" fill="#16171B"></path>
<path d="M21.7561 43.758V35.5046H18.7498V33.6895H26.9464V35.5046H23.9258V43.758H21.7561ZM33.7308 43.758V39.844L30.2281 33.6895H32.6105L34.8086 37.7452L36.9925 33.6895H39.3749L35.8864 39.844V43.758H33.7308ZM43.1659 43.758V33.6895H47.1933C48.4034 33.6895 49.3489 33.9826 50.0296 34.5687C50.7196 35.1548 51.0648 35.9584 51.0648 36.9795C51.0648 37.6507 50.9088 38.2369 50.5968 38.7379C50.2942 39.2295 49.8499 39.6124 49.2638 39.8866C48.6871 40.1513 47.9969 40.2836 47.1933 40.2836H45.3214V43.758H43.1659ZM45.3214 38.4685H47.0657C47.633 38.4685 48.0726 38.3455 48.3845 38.0998C48.6965 37.8445 48.8525 37.4711 48.8525 36.9795C48.8525 36.4973 48.6965 36.1333 48.3845 35.8875C48.082 35.6323 47.6424 35.5046 47.0657 35.5046H45.3214V38.4685ZM55.5367 43.758V33.6895H62.5421V35.5046H57.6922V37.8161H62.3719V39.6029H57.6922V41.9428H62.6555V43.758H55.5367ZM73.8247 43.758V33.6895H75.9802V43.758H73.8247Z" fill="#02664C"></path>
<path d="M52.0646 91.5274L51.4798 91.1117L47.406 88.2188L38.0862 94.836V98.6179L47.406 105.236L56.7241 98.6179V94.836L52.0646 91.5274ZM47.406 89.8848L50.307 91.9447L48.8166 93.0014L48.6833 93.0962L47.406 92.1894L43.6784 94.836L44.9557 95.7428L46.1285 96.5767L47.406 97.4834L51.1328 94.8352L49.8569 93.9284L49.9901 93.8336L51.4805 92.7769L54.3801 94.836L52.8897 95.8943L47.4068 99.7889L44.5057 97.729L43.3328 96.8967L41.9222 95.8951L40.4326 94.8368L47.406 89.8848Z" fill="#16171B"></path>
<path opacity="0.4" d="M26.4717 73.633V69.3179H27.7054L28.8055 72.4601L29.8994 69.3179H31.1332V73.633H30.2094V70.8373L29.1944 73.6209H28.4044L27.3955 70.8373V73.633H26.4717ZM34.5148 73.7303C34.0773 73.7303 33.7004 73.6391 33.3844 73.4568C33.0724 73.2745 32.8313 73.0151 32.6612 72.6789C32.4951 72.3426 32.412 71.9435 32.412 71.4816C32.412 71.0197 32.4951 70.6206 32.6612 70.2843C32.8313 69.9439 33.0724 69.6826 33.3844 69.5003C33.7004 69.3139 34.0773 69.2207 34.5148 69.2207C34.9524 69.2207 35.3272 69.3139 35.6392 69.5003C35.9552 69.6826 36.1963 69.9439 36.3624 70.2843C36.5326 70.6206 36.6177 71.0197 36.6177 71.4816C36.6177 71.9435 36.5326 72.3426 36.3624 72.6789C36.1963 73.0151 35.9552 73.2745 35.6392 73.4568C35.3272 73.6391 34.9524 73.7303 34.5148 73.7303ZM34.5088 72.9523C34.7519 72.9523 34.9585 72.8956 35.1287 72.7822C35.3029 72.6647 35.4346 72.4965 35.5237 72.2777C35.6169 72.0589 35.6635 71.7935 35.6635 71.4816C35.6635 71.1696 35.6169 70.9042 35.5237 70.6854C35.4346 70.4626 35.3029 70.2924 35.1287 70.1749C34.9585 70.0574 34.7519 69.9986 34.5088 69.9986C34.2697 69.9986 34.0651 70.0574 33.8949 70.1749C33.7248 70.2924 33.5931 70.4626 33.4999 70.6854C33.4107 70.9042 33.3662 71.1696 33.3662 71.4816C33.3662 71.7935 33.4107 72.0589 33.4999 72.2777C33.5931 72.4965 33.7248 72.6647 33.8949 72.7822C34.0692 72.8956 34.2738 72.9523 34.5088 72.9523ZM37.8985 73.633V69.3179H38.9196L40.6334 72.296V69.3179H41.5572V73.633H40.524L38.8223 70.7583V73.633H37.8985ZM43.0421 73.633V69.3179H43.9659V73.633H43.0421ZM46.2662 73.633V70.0959H44.9778V69.3179H48.4906V70.0959H47.1961V73.633H46.2662ZM51.3324 73.7303C50.8948 73.7303 50.518 73.6391 50.202 73.4568C49.89 73.2745 49.6489 73.0151 49.4787 72.6789C49.3126 72.3426 49.2296 71.9435 49.2296 71.4816C49.2296 71.0197 49.3126 70.6206 49.4787 70.2843C49.6489 69.9439 49.89 69.6826 50.202 69.5003C50.518 69.3139 50.8948 69.2207 51.3324 69.2207C51.77 69.2207 52.1448 69.3139 52.4568 69.5003C52.7728 69.6826 53.0139 69.9439 53.18 70.2843C53.3502 70.6206 53.4353 71.0197 53.4353 71.4816C53.4353 71.9435 53.3502 72.3426 53.18 72.6789C53.0139 73.0151 52.7728 73.2745 52.4568 73.4568C52.1448 73.6391 51.77 73.7303 51.3324 73.7303ZM51.3263 72.9523C51.5694 72.9523 51.7761 72.8956 51.9462 72.7822C52.1205 72.6647 52.2522 72.4965 52.3413 72.2777C52.4345 72.0589 52.4811 71.7935 52.4811 71.4816C52.4811 71.1696 52.4345 70.9042 52.3413 70.6854C52.2522 70.4626 52.1205 70.2924 51.9462 70.1749C51.7761 70.0574 51.5694 69.9986 51.3263 69.9986C51.0873 69.9986 50.8827 70.0574 50.7125 70.1749C50.5423 70.2924 50.4106 70.4626 50.3175 70.6854C50.2283 70.9042 50.1837 71.1696 50.1837 71.4816C50.1837 71.7935 50.2283 72.0589 50.3175 72.2777C50.4106 72.4965 50.5423 72.6647 50.7125 72.7822C50.8867 72.8956 51.0913 72.9523 51.3263 72.9523ZM54.7161 73.633V69.3179H56.6062C56.9223 69.3179 57.1957 69.3706 57.4267 69.476C57.6617 69.5813 57.842 69.7312 57.9676 69.9257C58.0932 70.1161 58.156 70.343 58.156 70.6064C58.156 70.8049 58.1135 70.9812 58.0284 71.1351C57.9473 71.2891 57.8339 71.4147 57.688 71.512C57.5462 71.6092 57.3821 71.67 57.1957 71.6943L57.1775 71.6396C57.4652 71.6396 57.684 71.7024 57.8339 71.828C57.9838 71.9495 58.0689 72.1379 58.0892 72.3932L58.1985 73.633H57.2565L57.1775 72.5391C57.1654 72.3729 57.1127 72.2514 57.0195 72.1744C56.9304 72.0934 56.7764 72.0529 56.5576 72.0529H55.6399V73.633H54.7161ZM55.6399 71.281H56.5029C56.7257 71.281 56.8979 71.2304 57.0195 71.1291C57.1451 71.0237 57.2079 70.8758 57.2079 70.6854C57.2079 70.4909 57.1451 70.3451 57.0195 70.2478C56.8939 70.1465 56.7116 70.0959 56.4725 70.0959H55.6399V71.281ZM59.6223 73.633V69.3179H62.6247V70.0959H60.5461V71.0865H62.5517V71.8523H60.5461V72.8551H62.6733V73.633H59.6223ZM64.0537 73.633V69.3179H65.5427C66.2437 69.3179 66.7825 69.5064 67.1593 69.8832C67.5362 70.2559 67.7246 70.7887 67.7246 71.4816C67.7246 72.1704 67.5382 72.7011 67.1654 73.0739C66.7967 73.4467 66.268 73.633 65.5792 73.633H64.0537ZM64.9775 72.8551H65.5427C65.96 72.8551 66.268 72.7437 66.4665 72.5208C66.6691 72.2939 66.7704 71.9455 66.7704 71.4755C66.7704 71.0055 66.6691 70.6591 66.4665 70.4362C66.268 70.2093 65.96 70.0959 65.5427 70.0959H64.9775V72.8551ZM26.7843 80.9261V76.6111H28.4617C28.9966 76.6111 29.4058 76.7063 29.6894 76.8967C29.973 77.0831 30.1148 77.3789 30.1148 77.784C30.1148 77.9623 30.0784 78.1183 30.0054 78.252C29.9325 78.3817 29.8251 78.485 29.6833 78.562C29.5456 78.6389 29.3774 78.6855 29.1789 78.7017V78.6896C29.5395 78.7139 29.815 78.8192 30.0054 79.0056C30.1999 79.1879 30.2972 79.4311 30.2972 79.7349C30.2972 80.1361 30.1553 80.4359 29.8717 80.6344C29.5922 80.8289 29.191 80.9261 28.6684 80.9261H26.7843ZM27.7081 80.1725H28.6258C28.8487 80.1725 29.0269 80.128 29.1606 80.0388C29.2984 79.9456 29.3673 79.8079 29.3673 79.6255C29.3673 79.4432 29.2984 79.3054 29.1606 79.2123C29.0269 79.115 28.8487 79.0664 28.6258 79.0664H27.7081V80.1725ZM27.7081 78.3979H28.4374C28.6643 78.3979 28.8446 78.3533 28.9783 78.2642C29.1161 78.175 29.185 78.0474 29.185 77.8813C29.185 77.703 29.1181 77.5733 28.9844 77.4923C28.8547 77.4072 28.6724 77.3647 28.4374 77.3647H27.7081V78.3979ZM32.4205 80.9261V79.2487L30.9193 76.6111H31.9404L32.8824 78.3492L33.8183 76.6111H34.8394L33.3443 79.2487V80.9261H32.4205ZM39.795 81.0234C39.402 81.0234 39.0516 80.9342 38.7436 80.756C38.4397 80.5777 38.2007 80.3204 38.0265 79.9841C37.8563 79.6478 37.7712 79.2447 37.7712 78.7747C37.7712 78.3168 37.8543 77.9198 38.0204 77.5835C38.1865 77.2431 38.4235 76.9798 38.7315 76.7934C39.0394 76.607 39.4 76.5138 39.8133 76.5138C40.3765 76.5138 40.8141 76.6536 41.126 76.9332C41.4421 77.2087 41.6447 77.6037 41.7338 78.1183L40.7735 78.1548C40.7249 77.8833 40.6196 77.6726 40.4575 77.5227C40.2954 77.3687 40.0807 77.2917 39.8133 77.2917C39.5823 77.2917 39.3858 77.3525 39.2238 77.4741C39.0617 77.5956 38.9381 77.7678 38.853 77.9907C38.7679 78.2135 38.7254 78.4748 38.7254 78.7747C38.7254 79.0786 38.7679 79.3419 38.853 79.5648C38.9422 79.7835 39.0678 79.9517 39.2298 80.0692C39.3919 80.1867 39.5844 80.2454 39.8072 80.2454C40.0989 80.2454 40.3238 80.1644 40.4818 80.0023C40.6439 79.8362 40.7452 79.6073 40.7857 79.3156L41.752 79.352C41.6953 79.7045 41.5839 80.0044 41.4178 80.2515C41.2516 80.4987 41.0328 80.6891 40.7614 80.8228C40.494 80.9565 40.1719 81.0234 39.795 81.0234ZM45.0058 81.0234C44.5682 81.0234 44.1914 80.9322 43.8754 80.7499C43.5634 80.5676 43.3223 80.3082 43.1521 79.972C42.986 79.6357 42.903 79.2366 42.903 78.7747C42.903 78.3128 42.986 77.9137 43.1521 77.5774C43.3223 77.237 43.5634 76.9757 43.8754 76.7934C44.1914 76.607 44.5682 76.5138 45.0058 76.5138C45.4434 76.5138 45.8182 76.607 46.1302 76.7934C46.4462 76.9757 46.6873 77.237 46.8534 77.5774C47.0236 77.9137 47.1087 78.3128 47.1087 78.7747C47.1087 79.2366 47.0236 79.6357 46.8534 79.972C46.6873 80.3082 46.4462 80.5676 46.1302 80.7499C45.8182 80.9322 45.4434 81.0234 45.0058 81.0234ZM44.9997 80.2454C45.2428 80.2454 45.4495 80.1887 45.6196 80.0753C45.7939 79.9578 45.9255 79.7896 46.0147 79.5708C46.1079 79.352 46.1545 79.0867 46.1545 78.7747C46.1545 78.4627 46.1079 78.1973 46.0147 77.9785C45.9255 77.7557 45.7939 77.5855 45.6196 77.468C45.4495 77.3505 45.2428 77.2917 44.9997 77.2917C44.7607 77.2917 44.5561 77.3505 44.3859 77.468C44.2157 77.5855 44.084 77.7557 43.9909 77.9785C43.9017 78.1973 43.8571 78.4627 43.8571 78.7747C43.8571 79.0867 43.9017 79.352 43.9909 79.5708C44.084 79.7896 44.2157 79.9578 44.3859 80.0753C44.5601 80.1887 44.7647 80.2454 44.9997 80.2454ZM48.3895 80.9261V76.6111H49.6232L50.7233 79.7532L51.8172 76.6111H53.051V80.9261H52.1272V78.1304L51.1122 80.914H50.3222L49.3133 78.1304V80.9261H48.3895ZM54.5361 80.9261V76.6111H56.2621C56.7808 76.6111 57.1859 76.7367 57.4777 76.9879C57.7734 77.2391 57.9213 77.5835 57.9213 78.021C57.9213 78.3087 57.8545 78.5599 57.7208 78.7747C57.5911 78.9854 57.4007 79.1495 57.1495 79.267C56.9023 79.3804 56.6065 79.4371 56.2621 79.4371H55.4599V80.9261H54.5361ZM55.4599 78.6592H56.2074C56.4505 78.6592 56.639 78.6065 56.7727 78.5012C56.9064 78.3918 56.9732 78.2317 56.9732 78.021C56.9732 77.8144 56.9064 77.6584 56.7727 77.5531C56.643 77.4437 56.4546 77.389 56.2074 77.389H55.4599V78.6592ZM61.0052 80.9261L62.561 76.6111H63.655L65.2109 80.9261H64.2506L63.9346 80.0084H62.2754L61.9594 80.9261H61.0052ZM62.5367 79.2487H63.6793L63.108 77.5835L62.5367 79.2487ZM66.2932 80.9261V76.6111H67.217V80.9261H66.2932Z" fill="#16171B"></path>
</g>
<defs>
<linearGradient id="paint0_linear_3519_5203" x1="46.9999" y1="1.62109" x2="46.9999" y2="117.5" gradientUnits="userSpaceOnUse">
<stop stop-color="#FAFAFA"></stop>
<stop offset="1" stop-color="#00DB80"></stop>
</linearGradient>
<clipPath id="clip0_3519_5203">
<rect width="94" height="122.362" fill="white"></rect>
</clipPath>
</defs>
</svg>