<svg width="94" height="123" viewBox="0 0 94 123" fill="none" xmlns="http://www.w3.org/2000/svg">
<g clip-path="url(#clip0_3519_5196)">
<path d="M1.62061 87.7306V2.43148C1.62061 1.98392 1.98341 1.62109 2.43095 1.62109H91.5689C92.0162 1.62109 92.3792 1.98392 92.3792 2.43148V87.7306C92.3792 87.9916 92.2536 88.2363 92.0413 88.3887L47.4727 120.408C47.1902 120.61 46.8096 120.61 46.5272 120.408L1.95817 88.3887C1.74625 88.2363 1.62061 87.9916 1.62061 87.7306Z" fill="white" stroke="url(#paint0_linear_3519_5196)" stroke-width="4"></path>
<path d="M23.9094 29.5934C22.7684 29.5934 21.783 29.3924 20.9532 28.9905C20.1234 28.5885 19.4687 28.031 18.9889 27.3178C18.5222 26.5917 18.2499 25.7489 18.1721 24.7894L20.7393 24.6339C20.8171 25.2303 20.9856 25.736 21.2449 26.1509C21.5172 26.5658 21.8738 26.8835 22.3146 27.1039C22.7684 27.3114 23.3129 27.4151 23.9483 27.4151C24.4928 27.4151 24.9531 27.3503 25.3291 27.2206C25.7181 27.078 26.0098 26.877 26.2043 26.6177C26.4117 26.3454 26.5154 26.0147 26.5154 25.6258C26.5154 25.2757 26.4312 24.9645 26.2626 24.6922C26.0941 24.4069 25.7699 24.1541 25.2902 23.9337C24.8105 23.7003 24.0974 23.4734 23.1509 23.253C22.0099 22.9936 21.0958 22.7019 20.4087 22.3777C19.7215 22.0406 19.2223 21.6257 18.9112 21.133C18.6 20.6273 18.4444 19.9985 18.4444 19.2464C18.4444 18.4425 18.6454 17.7359 19.0473 17.1265C19.4492 16.5041 20.0197 16.0244 20.7587 15.6872C21.4978 15.3372 22.3859 15.1621 23.4232 15.1621C24.5252 15.1621 25.4587 15.3631 26.2237 15.765C26.9887 16.154 27.5916 16.6921 28.0324 17.3793C28.4732 18.0665 28.7455 18.8575 28.8492 19.7521L26.3015 19.8688C26.2367 19.3631 26.0811 18.9223 25.8347 18.5463C25.6014 18.1702 25.2772 17.8785 24.8623 17.6711C24.4604 17.4506 23.9677 17.3404 23.3843 17.3404C22.6582 17.3404 22.0812 17.509 21.6534 17.8461C21.2385 18.1702 21.031 18.6046 21.031 19.1492C21.031 19.5252 21.1153 19.8364 21.2838 20.0827C21.4654 20.3291 21.783 20.543 22.2368 20.7246C22.6906 20.8931 23.3259 21.0747 24.1427 21.2691C25.3745 21.5285 26.3534 21.8591 27.0794 22.2611C27.8055 22.663 28.3241 23.1298 28.6353 23.6614C28.9465 24.193 29.1021 24.8024 29.1021 25.4896C29.1021 26.3324 28.8881 27.065 28.4603 27.6874C28.0324 28.2968 27.4295 28.77 26.6516 29.1072C25.8736 29.4313 24.9596 29.5934 23.9094 29.5934ZM37.9309 29.5934C36.5695 29.5934 35.3962 29.3081 34.4108 28.7376C33.4254 28.1542 32.6669 27.3243 32.1353 26.2481C31.6167 25.1719 31.3574 23.8883 31.3574 22.3972C31.3574 20.9061 31.6167 19.6225 32.1353 18.5463C32.6669 17.4571 33.4254 16.6208 34.4108 16.0373C35.3962 15.4538 36.5695 15.1621 37.9309 15.1621C39.3182 15.1621 40.4981 15.4538 41.4705 16.0373C42.4559 16.6208 43.2079 17.4571 43.7265 18.5463C44.2581 19.6225 44.5239 20.9061 44.5239 22.3972C44.5239 23.8883 44.2581 25.1719 43.7265 26.2481C43.2079 27.3243 42.4559 28.1542 41.4705 28.7376C40.4981 29.3081 39.3182 29.5934 37.9309 29.5934ZM37.9309 27.3956C38.7737 27.3956 39.4868 27.2011 40.0702 26.8122C40.6666 26.4102 41.1204 25.8397 41.4316 25.1006C41.7558 24.3486 41.9178 23.4475 41.9178 22.3972C41.9178 21.3469 41.7558 20.4458 41.4316 19.6938C41.1204 18.9417 40.6666 18.3647 40.0702 17.9628C39.4868 17.5608 38.7737 17.3599 37.9309 17.3599C37.1141 17.3599 36.4075 17.5608 35.8111 17.9628C35.2146 18.3647 34.7544 18.9417 34.4302 19.6938C34.1191 20.4458 33.9635 21.3469 33.9635 22.3972C33.9635 23.4475 34.1191 24.3486 34.4302 25.1006C34.7544 25.8397 35.2146 26.4102 35.8111 26.8122C36.4075 27.2011 37.1141 27.3956 37.9309 27.3956ZM52.978 29.5934C51.7203 29.5934 50.6118 29.3081 49.6523 28.7376C48.6929 28.1542 47.9409 27.3308 47.3963 26.2676C46.8518 25.1914 46.5795 23.9013 46.5795 22.3972C46.5795 20.9191 46.8453 19.6419 47.3769 18.5657C47.9085 17.4766 48.654 16.6402 49.6134 16.0568C50.5729 15.4603 51.7009 15.1621 52.9974 15.1621C54.7607 15.1621 56.1286 15.603 57.101 16.4847C58.0734 17.3534 58.7087 18.5722 59.0069 20.1411L56.362 20.2772C56.1934 19.3696 55.8304 18.6565 55.2729 18.1378C54.7154 17.6192 53.9569 17.3599 52.9974 17.3599C52.2195 17.3599 51.5453 17.5673 50.9748 17.9822C50.4043 18.3972 49.9635 18.9806 49.6523 19.7327C49.3411 20.4847 49.1856 21.3729 49.1856 22.3972C49.1856 23.4345 49.3411 24.3291 49.6523 25.0812C49.9765 25.8203 50.4238 26.3908 50.9942 26.7927C51.5647 27.1947 52.226 27.3956 52.978 27.3956C54.0022 27.3956 54.7931 27.1169 55.3507 26.5593C55.9211 25.9888 56.2842 25.2108 56.4398 24.2254L59.0847 24.3616C58.9032 25.4378 58.5532 26.3713 58.0345 27.1622C57.5159 27.9402 56.8287 28.5431 55.973 28.971C55.1302 29.3859 54.1319 29.5934 52.978 29.5934ZM66.3382 29.2822C66.3382 28.1671 66.4938 27.1947 66.805 26.3648C67.1161 25.522 67.6412 24.757 68.3803 24.0698C69.1193 23.3697 70.1177 22.6889 71.3753 22.0277C71.9977 21.6905 72.4968 21.3923 72.8728 21.133C73.2488 20.8737 73.5211 20.6079 73.6897 20.3356C73.8582 20.0503 73.9425 19.7132 73.9425 19.3242C73.9425 18.9352 73.8582 18.5981 73.6897 18.3129C73.5211 18.0147 73.2683 17.7813 72.9312 17.6127C72.607 17.4441 72.1986 17.3599 71.7059 17.3599C70.915 17.3599 70.2862 17.5868 69.8195 18.0406C69.3657 18.4814 69.0869 19.1168 68.9832 19.9466L66.3771 19.791C66.5068 18.3518 67.0319 17.2237 67.9524 16.4069C68.8859 15.577 70.1371 15.1621 71.7059 15.1621C72.7172 15.1621 73.5859 15.3372 74.312 15.6872C75.0381 16.0244 75.5891 16.5041 75.9651 17.1265C76.3541 17.7488 76.5486 18.4685 76.5486 19.2853C76.5486 19.9855 76.4254 20.5884 76.179 21.0941C75.9457 21.5998 75.5567 22.0666 75.0121 22.4944C74.4806 22.9094 73.761 23.3567 72.8534 23.8364C71.7124 24.4458 70.8567 25.0358 70.2862 25.6063C69.7157 26.1639 69.411 26.6566 69.3721 27.0844H76.5486V29.2822H66.3382Z" fill="#16171B"></path>
<path d="M21.4655 59.4035C20.9152 59.4035 20.4246 59.2787 19.9935 59.0291C19.568 58.7795 19.2334 58.4193 18.9894 57.9485C18.7512 57.4777 18.6321 56.9132 18.6321 56.2552C18.6321 55.6142 18.7484 55.0583 18.9809 54.5874C19.2135 54.1109 19.5453 53.7422 19.9764 53.4813C20.4075 53.2203 20.9124 53.0898 21.491 53.0898C22.2794 53.0898 22.8921 53.2855 23.3288 53.677C23.7713 54.0627 24.0549 54.6158 24.1797 55.3362L22.8353 55.3873C22.7673 55.0072 22.6198 54.7122 22.3929 54.5023C22.166 54.2868 21.8654 54.179 21.491 54.179C21.1676 54.179 20.8925 54.2641 20.6656 54.4343C20.4387 54.6044 20.2657 54.8455 20.1466 55.1575C20.0275 55.4695 19.9679 55.8354 19.9679 56.2552C19.9679 56.6806 20.0275 57.0494 20.1466 57.3614C20.2714 57.6677 20.4473 57.9031 20.6741 58.0676C20.901 58.2321 21.1705 58.3144 21.4825 58.3144C21.8909 58.3144 22.2057 58.2009 22.4269 57.974C22.6538 57.7414 22.7956 57.4209 22.8524 57.0125L24.2052 57.0635C24.1258 57.5571 23.9698 57.9768 23.7373 58.3229C23.5047 58.6689 23.1984 58.9355 22.8183 59.1227C22.4439 59.3099 21.993 59.4035 21.4655 59.4035ZM27.0102 59.2674V53.226H31.2134V54.3151H28.3035V55.7021H31.1113V56.7742H28.3035V58.1782H31.2815V59.2674H27.0102ZM34.2351 59.2674V53.226H36.8813C37.3237 53.226 37.7066 53.2997 38.03 53.4472C38.359 53.5947 38.6114 53.8046 38.7872 54.0769C38.9631 54.3435 39.051 54.6612 39.051 55.0299C39.051 55.3079 38.9914 55.5546 38.8723 55.7702C38.7589 55.9857 38.6 56.1616 38.3958 56.2977C38.1973 56.4339 37.9676 56.519 37.7066 56.553L37.6811 56.4764C38.0838 56.4764 38.3901 56.5644 38.6 56.7402C38.8099 56.9104 38.929 57.1742 38.9574 57.5315L39.1105 59.2674H37.7917L37.6811 57.7358C37.6641 57.5032 37.5903 57.333 37.4599 57.2252C37.3351 57.1118 37.1195 57.055 36.8132 57.055H35.5284V59.2674H34.2351ZM35.5284 55.9744H36.7366C37.0486 55.9744 37.2897 55.9035 37.4599 55.7617C37.6357 55.6142 37.7236 55.4071 37.7236 55.1405C37.7236 54.8682 37.6357 54.664 37.4599 54.5279C37.284 54.386 37.0288 54.3151 36.6941 54.3151H35.5284V55.9744ZM43.2431 59.2674V54.3151H41.4393V53.226H46.3573V54.3151H44.545V59.2674H43.2431ZM48.868 59.2674V53.226H50.1613V59.2674H48.868ZM53.2596 59.2674V53.226H57.4288V54.3151H53.8382L54.5529 53.5749V56.3403L53.8382 55.7787H57.2756V56.8508H53.8382L54.5529 56.2892V59.2674H53.2596ZM60.2353 59.2674V53.226H61.5286V59.2674H60.2353ZM64.6268 59.2674V53.226H68.8301V54.3151H65.9202V55.7021H68.728V56.7742H65.9202V58.1782H68.8982V59.2674H64.6268ZM71.8519 59.2674V53.226H73.9365C74.9178 53.226 75.6723 53.4898 76.1998 54.0173C76.7273 54.5392 76.9911 55.2852 76.9911 56.2552C76.9911 57.2195 76.7302 57.9627 76.2083 58.4846C75.6921 59.0064 74.9519 59.2674 73.9875 59.2674H71.8519ZM73.1452 58.1782H73.9365C74.5208 58.1782 74.9519 58.0222 75.2298 57.7102C75.5134 57.3926 75.6552 56.9047 75.6552 56.2467C75.6552 55.5887 75.5134 55.1036 75.2298 54.7916C74.9519 54.474 74.5208 54.3151 73.9365 54.3151H73.1452V58.1782Z" fill="#16171B"></path>
<path d="M20.72 43.8698V35.616H17.7136V33.8008H25.9103V35.616H22.8897V43.8698H20.72ZM31.8439 43.8698V39.9556L28.3412 33.8008H30.7236L32.9217 37.8567L35.1056 33.8008H37.488L33.9994 39.9556V43.8698H31.8439ZM40.4281 43.8698V33.8008H44.4555C45.6657 33.8008 46.611 34.0939 47.2917 34.68C47.9819 35.2663 48.3269 36.0699 48.3269 37.0909C48.3269 37.7623 48.1709 38.3484 47.8589 38.8495C47.5564 39.3411 47.1121 39.724 46.5259 39.9982C45.9493 40.2629 45.2591 40.3953 44.4555 40.3953H42.5836V43.8698H40.4281ZM42.5836 38.58H44.3279C44.8951 38.58 45.3347 38.4572 45.6467 38.2113C45.9587 37.956 46.1147 37.5826 46.1147 37.0909C46.1147 36.6088 45.9587 36.2448 45.6467 35.9989C45.3442 35.7437 44.9046 35.616 44.3279 35.616H42.5836V38.58ZM51.9479 43.8698V33.8008H58.9534V35.616H54.1035V37.9276H58.7832V39.7145H54.1035V42.0545H59.0668V43.8698H51.9479ZM68.5342 43.8698V33.8008H70.6898V43.8698H68.5342ZM74.8608 43.8698V33.8008H77.0164V43.8698H74.8608Z" fill="#02664C"></path>
<path d="M52.0646 91.6408L51.4798 91.2251L47.406 88.332L38.0862 94.9496V98.7317L47.406 105.35L56.7241 98.7317V94.9496L52.0646 91.6408ZM47.406 89.9982L50.307 92.0582L48.8166 93.1149L48.6833 93.2097L47.406 92.3029L43.6784 94.9496L44.9557 95.8564L46.1285 96.6903L47.406 97.5971L51.1328 94.9488L49.8569 94.042L49.9901 93.948L51.4805 92.8904L54.3801 94.9496L52.8897 96.008L47.4068 99.9027L44.5057 97.8427L43.3328 97.0104L41.9222 96.0088L40.4326 94.9504L47.406 89.9982Z" fill="#16171B"></path>
<path opacity="0.4" d="M26.4717 73.7446V69.4293H27.7054L28.8055 72.5715L29.8994 69.4293H31.1332V73.7446H30.2094V70.9487L29.1944 73.7324H28.4044L27.3955 70.9487V73.7446H26.4717ZM34.5148 73.8418C34.0773 73.8418 33.7004 73.7506 33.3844 73.5683C33.0724 73.386 32.8313 73.1266 32.6612 72.7903C32.4951 72.454 32.412 72.0549 32.412 71.593C32.412 71.1311 32.4951 70.732 32.6612 70.3957C32.8313 70.0553 33.0724 69.7939 33.3844 69.6116C33.7004 69.4252 34.0773 69.332 34.5148 69.332C34.9524 69.332 35.3272 69.4252 35.6392 69.6116C35.9552 69.7939 36.1963 70.0553 36.3624 70.3957C36.5326 70.732 36.6177 71.1311 36.6177 71.593C36.6177 72.0549 36.5326 72.454 36.3624 72.7903C36.1963 73.1266 35.9552 73.386 35.6392 73.5683C35.3272 73.7506 34.9524 73.8418 34.5148 73.8418ZM34.5088 73.0638C34.7519 73.0638 34.9585 73.0071 35.1287 72.8937C35.3029 72.7762 35.4346 72.608 35.5237 72.3892C35.6169 72.1704 35.6635 71.905 35.6635 71.593C35.6635 71.281 35.6169 71.0156 35.5237 70.7968C35.4346 70.5739 35.3029 70.4038 35.1287 70.2863C34.9585 70.1687 34.7519 70.11 34.5088 70.11C34.2697 70.11 34.0651 70.1687 33.8949 70.2863C33.7248 70.4038 33.5931 70.5739 33.4999 70.7968C33.4107 71.0156 33.3662 71.281 33.3662 71.593C33.3662 71.905 33.4107 72.1704 33.4999 72.3892C33.5931 72.608 33.7248 72.7762 33.8949 72.8937C34.0691 73.0071 34.2738 73.0638 34.5088 73.0638ZM37.8985 73.7446V69.4293H38.9195L40.6334 72.4074V69.4293H41.5572V73.7446H40.524L38.8223 70.8697V73.7446H37.8985ZM43.0421 73.7446V69.4293H43.9659V73.7446H43.0421ZM46.2662 73.7446V70.2072H44.9778V69.4293H48.4906V70.2072H47.1961V73.7446H46.2662ZM51.3324 73.8418C50.8948 73.8418 50.518 73.7506 50.202 73.5683C49.89 73.386 49.6489 73.1266 49.4787 72.7903C49.3126 72.454 49.2296 72.0549 49.2296 71.593C49.2296 71.1311 49.3126 70.732 49.4787 70.3957C49.6489 70.0553 49.89 69.7939 50.202 69.6116C50.518 69.4252 50.8948 69.332 51.3324 69.332C51.77 69.332 52.1448 69.4252 52.4568 69.6116C52.7728 69.7939 53.0139 70.0553 53.18 70.3957C53.3502 70.732 53.4353 71.1311 53.4353 71.593C53.4353 72.0549 53.3502 72.454 53.18 72.7903C53.0139 73.1266 52.7728 73.386 52.4568 73.5683C52.1448 73.7506 51.77 73.8418 51.3324 73.8418ZM51.3263 73.0638C51.5694 73.0638 51.7761 73.0071 51.9462 72.8937C52.1205 72.7762 52.2522 72.608 52.3413 72.3892C52.4345 72.1704 52.4811 71.905 52.4811 71.593C52.4811 71.281 52.4345 71.0156 52.3413 70.7968C52.2522 70.5739 52.1205 70.4038 51.9462 70.2863C51.7761 70.1687 51.5694 70.11 51.3263 70.11C51.0873 70.11 50.8827 70.1687 50.7125 70.2863C50.5423 70.4038 50.4106 70.5739 50.3175 70.7968C50.2283 71.0156 50.1837 71.281 50.1837 71.593C50.1837 71.905 50.2283 72.1704 50.3175 72.3892C50.4106 72.608 50.5423 72.7762 50.7125 72.8937C50.8867 73.0071 51.0913 73.0638 51.3263 73.0638ZM54.7161 73.7446V69.4293H56.6062C56.9222 69.4293 57.1957 69.482 57.4267 69.5873C57.6617 69.6927 57.842 69.8426 57.9676 70.0371C58.0932 70.2275 58.156 70.4544 58.156 70.7178C58.156 70.9163 58.1135 71.0926 58.0284 71.2466C57.9473 71.4005 57.8339 71.5261 57.688 71.6234C57.5462 71.7206 57.3821 71.7814 57.1957 71.8057L57.1775 71.751C57.4652 71.751 57.684 71.8138 57.8339 71.9394C57.9838 72.061 58.0689 72.2494 58.0891 72.5047L58.1985 73.7446H57.2565L57.1775 72.6505C57.1654 72.4844 57.1127 72.3629 57.0195 72.2859C56.9304 72.2048 56.7764 72.1643 56.5576 72.1643H55.6399V73.7446H54.7161ZM55.6399 71.3924H56.5029C56.7257 71.3924 56.8979 71.3418 57.0195 71.2405C57.1451 71.1351 57.2079 70.9872 57.2079 70.7968C57.2079 70.6023 57.1451 70.4564 57.0195 70.3592C56.8939 70.2579 56.7116 70.2072 56.4725 70.2072H55.6399V71.3924ZM59.6223 73.7446V69.4293H62.6246V70.2072H60.5461V71.1979H62.5517V71.9637H60.5461V72.9666H62.6733V73.7446H59.6223ZM64.0537 73.7446V69.4293H65.5427C66.2436 69.4293 66.7825 69.6177 67.1593 69.9945C67.5361 70.3673 67.7245 70.9001 67.7245 71.593C67.7245 72.2818 67.5382 72.8126 67.1654 73.1854C66.7967 73.5582 66.268 73.7446 65.5792 73.7446H64.0537ZM64.9775 72.9666H65.5427C65.96 72.9666 66.268 72.8552 66.4665 72.6323C66.6691 72.4054 66.7704 72.0569 66.7704 71.5869C66.7704 71.1169 66.6691 70.7705 66.4665 70.5476C66.268 70.3207 65.96 70.2072 65.5427 70.2072H64.9775V72.9666ZM26.7843 81.038V76.7227H28.4617C28.9966 76.7227 29.4058 76.8179 29.6894 77.0084C29.973 77.1948 30.1148 77.4905 30.1148 77.8957C30.1148 78.074 30.0784 78.23 30.0054 78.3637C29.9325 78.4934 29.8251 78.5967 29.6833 78.6737C29.5456 78.7507 29.3774 78.7973 29.1789 78.8135V78.8013C29.5395 78.8257 29.815 78.931 30.0054 79.1174C30.1999 79.2997 30.2972 79.5428 30.2972 79.8467C30.2972 80.2479 30.1553 80.5477 29.8717 80.7463C29.5922 80.9407 29.191 81.038 28.6684 81.038H26.7843ZM27.7081 80.2843H28.6258C28.8487 80.2843 29.0269 80.2398 29.1606 80.1506C29.2984 80.0574 29.3673 79.9197 29.3673 79.7373C29.3673 79.555 29.2984 79.4172 29.1606 79.324C29.0269 79.2268 28.8487 79.1782 28.6258 79.1782H27.7081V80.2843ZM27.7081 78.5096H28.4374C28.6643 78.5096 28.8446 78.465 28.9783 78.3759C29.1161 78.2867 29.185 78.1591 29.185 77.993C29.185 77.8147 29.1181 77.685 28.9844 77.604C28.8547 77.5189 28.6724 77.4764 28.4374 77.4764H27.7081V78.5096ZM32.4205 81.038V79.3605L30.9193 76.7227H31.9404L32.8824 78.461L33.8183 76.7227H34.8394L33.3443 79.3605V81.038H32.4205ZM39.795 81.1352C39.402 81.1352 39.0516 81.0461 38.7436 80.8678C38.4397 80.6895 38.2007 80.4322 38.0265 80.0959C37.8563 79.7596 37.7712 79.3565 37.7712 78.8864C37.7712 78.4286 37.8543 78.0315 38.0204 77.6952C38.1865 77.3548 38.4235 77.0914 38.7315 76.905C39.0394 76.7187 39.4 76.6255 39.8133 76.6255C40.3765 76.6255 40.8141 76.7653 41.126 77.0448C41.4421 77.3204 41.6447 77.7154 41.7338 78.23L40.7735 78.2665C40.7249 77.995 40.6196 77.7843 40.4575 77.6344C40.2954 77.4804 40.0807 77.4034 39.8133 77.4034C39.5823 77.4034 39.3858 77.4642 39.2238 77.5858C39.0617 77.7073 38.9381 77.8795 38.853 78.1024C38.7679 78.3252 38.7254 78.5866 38.7254 78.8864C38.7254 79.1903 38.7679 79.4537 38.853 79.6766C38.9422 79.8954 39.0678 80.0635 39.2298 80.181C39.3919 80.2985 39.5844 80.3573 39.8072 80.3573C40.0989 80.3573 40.3238 80.2762 40.4818 80.1142C40.6439 79.948 40.7452 79.7191 40.7857 79.4274L41.752 79.4638C41.6953 79.8163 41.5839 80.1162 41.4178 80.3634C41.2516 80.6105 41.0328 80.801 40.7614 80.9347C40.494 81.0688 40.1719 81.1352 39.795 81.1352ZM45.0058 81.1352C44.5682 81.1352 44.1914 81.0445 43.8754 80.8617C43.5634 80.6794 43.3223 80.4201 43.1521 80.0838C42.986 79.7475 42.903 79.3483 42.903 78.8864C42.903 78.4245 42.986 78.0254 43.1521 77.6891C43.3223 77.3487 43.5634 77.0874 43.8754 76.905C44.1914 76.7187 44.5682 76.6255 45.0058 76.6255C45.4434 76.6255 45.8182 76.7187 46.1302 76.905C46.4462 77.0874 46.6873 77.3487 46.8534 77.6891C47.0236 78.0254 47.1086 78.4245 47.1086 78.8864C47.1086 79.3483 47.0236 79.7475 46.8534 80.0838C46.6873 80.4201 46.4462 80.6794 46.1302 80.8617C45.8182 81.0445 45.4434 81.1352 45.0058 81.1352ZM44.9997 80.3573C45.2428 80.3573 45.4495 80.3005 45.6196 80.1871C45.7939 80.0696 45.9255 79.9014 46.0147 79.6826C46.1079 79.4638 46.1545 79.1984 46.1545 78.8864C46.1545 78.5744 46.1079 78.309 46.0147 78.0902C45.9255 77.8674 45.7939 77.6972 45.6196 77.5797C45.4495 77.4622 45.2428 77.4034 44.9997 77.4034C44.7607 77.4034 44.5561 77.4622 44.3859 77.5797C44.2157 77.6972 44.084 77.8674 43.9908 78.0902C43.9017 78.309 43.8571 78.5744 43.8571 78.8864C43.8571 79.1984 43.9017 79.4638 43.9908 79.6826C44.084 79.9014 44.2157 80.0696 44.3859 80.1871C44.5601 80.3005 44.7647 80.3573 44.9997 80.3573ZM48.3895 81.038V76.7227H49.6232L50.7233 79.865L51.8172 76.7227H53.051V81.038H52.1272V78.2422L51.1122 81.0258H50.3222L49.3133 78.2422V81.038H48.3895ZM54.5361 81.038V76.7227H56.2621C56.7808 76.7227 57.1859 76.8483 57.4777 77.0995C57.7734 77.3508 57.9213 77.6952 57.9213 78.1328C57.9213 78.4205 57.8545 78.6717 57.7208 78.8864C57.5911 79.0971 57.4007 79.2612 57.1495 79.3787C56.9023 79.4922 56.6065 79.5489 56.2621 79.5489H55.4599V81.038H54.5361ZM55.4599 78.771H56.2074C56.4505 78.771 56.639 78.7183 56.7727 78.6129C56.9064 78.5035 56.9732 78.3435 56.9732 78.1328C56.9732 77.9261 56.9064 77.7701 56.7727 77.6648C56.643 77.5554 56.4546 77.5007 56.2074 77.5007H55.4599V78.771ZM61.0052 81.038L62.561 76.7227H63.655L65.2109 81.038H64.2506L63.9346 80.1202H62.2754L61.9594 81.038H61.0052ZM62.5367 79.3605H63.6793L63.108 77.6952L62.5367 79.3605ZM66.2932 81.038V76.7227H67.2169V81.038H66.2932Z" fill="#16171B"></path>
</g>
<defs>
<linearGradient id="paint0_linear_3519_5196" x1="46.9999" y1="1.62109" x2="46.9999" y2="117.506" gradientUnits="userSpaceOnUse">
<stop stop-color="#FAFAFA"></stop>
<stop offset="1" stop-color="#00DB80"></stop>
</linearGradient>
<clipPath id="clip0_3519_5196">
<rect width="94" height="122.368" fill="white"></rect>
</clipPath>
</defs>
</svg>