<svg width="28" height="28" viewBox="0 0 28 28" fill="none" xmlns="http://www.w3.org/2000/svg">
<path d="M5.34324 16.0228C5.41523 15.8228 5.47122 15.6069 5.55121 15.4149C5.94315 14.479 5.86316 13.5671 5.46322 12.6553C4.46336 10.3756 3.4955 8.07193 2.44765 5.80825C1.67176 4.12849 0.831881 2.46473 0 0.792969V27.9891L0.343951 27.6451C0.463934 27.3892 0.575918 27.1412 0.687902 26.8932C2.32767 23.3097 3.99143 19.7343 5.34324 16.0228Z" fill="#FFC772"></path>
<path d="M21.4065 7.47353C21.5265 7.17758 21.6705 6.89762 21.8385 6.52967C21.6865 6.59366 21.6225 6.61766 21.5585 6.64165C20.0227 7.28156 18.5029 7.95347 16.9512 8.55338C15.2634 9.20929 13.5356 9.27328 11.8159 8.64137C10.8 8.26542 9.79217 7.89747 8.79232 7.48953C8.09642 7.20957 7.42451 6.86562 6.64062 6.51367C6.74461 6.72964 6.8006 6.85762 6.85659 6.9936C7.46451 8.44939 8.10442 9.89719 8.66434 11.377C9.25625 12.9368 9.44022 14.5525 8.87231 16.1683C8.37638 17.5521 7.83245 18.9199 7.29653 20.2957C7.12056 20.7436 6.89659 21.1756 6.64862 21.7035C6.8486 21.6235 6.94458 21.5835 7.03257 21.5435C8.56835 20.9116 10.0961 20.2397 11.6479 19.6478C13.2157 19.0559 14.8315 18.9599 16.4392 19.5278C17.5911 19.9358 18.7349 20.3677 19.8707 20.8236C20.5106 21.0796 21.1346 21.3995 21.8305 21.7195C21.7585 21.5435 21.7105 21.4395 21.6625 21.3276C21.0066 19.7198 20.3187 18.128 19.7028 16.5042C19.1428 15.0085 19.0868 13.4647 19.6388 11.9529C20.1827 10.4491 20.8066 8.96132 21.3985 7.47353H21.4065Z" fill="#FF782E"></path>
<path d="M0.833164 0.193739C4.50464 1.90549 8.16811 3.63325 11.9596 5.08904C12.0076 5.10504 12.0476 5.12104 12.0956 5.13703C14.2872 5.92892 14.4152 5.98491 16.9189 4.93706C20.5583 3.40928 24.1658 1.79351 27.7813 0.209737L27.9813 0.00976562H0.449219C0.5772 0.0737565 0.705182 0.129748 0.833164 0.193739Z" fill="#FFC772"></path>
</svg>