<svg width="25" height="24" viewBox="0 0 25 24" fill="none" xmlns="http://www.w3.org/2000/svg">
<path fill-rule="evenodd" clip-rule="evenodd" d="M21.4999 10.9243C21.4974 10.5808 21.2806 10.2763 20.9574 10.1615L6.59018 5.04766C6.29341 4.94137 5.96178 5.01619 5.73898 5.23898C5.5162 5.46176 5.44136 5.79341 5.54766 6.09018L10.6615 20.4575C10.7763 20.7806 11.0807 20.9974 11.4243 21C11.767 21.0025 12.0748 20.7908 12.1947 20.4694L14.5799 14.0798L20.9694 11.6947C21.2908 11.5748 21.5025 11.267 21.4999 10.9243ZM18.301 10.9481L13.66 12.6802C13.4381 12.7636 13.2637 12.9379 13.1804 13.1598L11.4483 17.8009L7.66165 7.16147L18.301 10.9481Z" fill="#FF782E"></path>
</svg>