<svg width="25" height="25" viewBox="0 0 25 25" fill="none" xmlns="http://www.w3.org/2000/svg">
<path d="M14.5382 12.5L18.9913 8.04687C19.2027 7.8359 19.3216 7.54962 19.3218 7.25099C19.3221 6.95237 19.2037 6.66587 18.9927 6.45453C18.7818 6.24319 18.4955 6.12431 18.1969 6.12404C17.8982 6.12378 17.6117 6.24215 17.4004 6.45312L12.9473 10.9062L8.49414 6.45312C8.28279 6.24178 7.99615 6.12305 7.69726 6.12305C7.39838 6.12305 7.11173 6.24178 6.90039 6.45312C6.68904 6.66447 6.57031 6.95111 6.57031 7.25C6.57031 7.54888 6.68904 7.83553 6.90039 8.04687L11.3535 12.5L6.90039 16.9531C6.68904 17.1645 6.57031 17.4511 6.57031 17.75C6.57031 18.0489 6.68904 18.3355 6.90039 18.5469C7.11173 18.7582 7.39838 18.8769 7.69726 18.8769C7.99615 18.8769 8.28279 18.7582 8.49414 18.5469L12.9473 14.0937L17.4004 18.5469C17.6117 18.7582 17.8984 18.8769 18.1973 18.8769C18.4962 18.8769 18.7828 18.7582 18.9941 18.5469C19.2055 18.3355 19.3242 18.0489 19.3242 17.75C19.3242 17.4511 19.2055 17.1645 18.9941 16.9531L14.5382 12.5Z" fill="#0F0D05"></path>
</svg>