<svg width="18" height="23" viewBox="0 0 18 23" fill="none" xmlns="http://www.w3.org/2000/svg">
<path d="M16.4998 9.24958L6.22497 21.9497L6.22494 21.9497L6.21995 21.956C6.20923 21.9696 6.19559 21.9805 6.18004 21.9881C6.16469 21.9955 6.14788 21.9994 6.13081 21.9996C6.11488 21.9995 6.09915 21.996 6.08471 21.9893C6.07007 21.9824 6.05709 21.9725 6.04669 21.9601C6.0363 21.9478 6.02874 21.9333 6.02454 21.9177C6.02035 21.9021 6.01962 21.8858 6.02241 21.8699L6.03367 21.8056V21.8029L7.33919 14.6339L7.50024 13.7496H6.60133H1.5L11.7735 1.04939L11.7735 1.04943L11.7795 1.04182C11.7951 1.02211 11.8166 1.00803 11.8409 1.00173C11.8652 0.995426 11.8909 0.997254 11.914 1.00693C11.9372 1.01661 11.9565 1.0336 11.9691 1.05532C11.9817 1.07703 11.9868 1.10226 11.9837 1.12716L11.983 1.13286L10.6617 8.36478L10.5 9.24958H11.3995H16.4998Z" fill="white" stroke="#FF782E" stroke-width="1.5"></path>
</svg>