<svg width="25" height="24" viewBox="0 0 25 24" fill="none" xmlns="http://www.w3.org/2000/svg">
<path d="M1.50002 20.2444C1.5036 19.0822 2.26723 18.0483 3.40912 17.6613V7.42005C3.40912 5.78383 4.31834 4.2713 5.79549 3.45378C7.27265 2.63508 9.09106 2.63508 10.5682 3.45378C12.0454 4.27133 12.9546 5.78389 12.9546 7.42005V10.333C14.0869 10.728 14.8411 11.7597 14.8411 12.9161C14.8411 14.0726 14.0869 15.1043 12.9546 15.4993V17.4962C12.9546 19.0134 14.2373 20.2443 15.8183 20.2443C17.3992 20.2443 18.6819 19.0134 18.6819 17.4962V6.3393C17.367 5.89276 16.5783 4.6023 16.8146 3.28318C17.0496 1.96412 18.2416 1 19.6365 1C21.0313 1 22.2233 1.96412 22.4584 3.28318C22.6946 4.60224 21.9059 5.89267 20.591 6.3393V17.4962C20.591 19.1325 19.6818 20.645 18.2046 21.4625C16.7275 22.2812 14.9091 22.2812 13.4319 21.4625C11.9547 20.6449 11.0455 19.1324 11.0455 17.4962V15.4993C9.91319 15.1043 9.15908 14.0726 9.15908 12.9161C9.15908 11.7597 9.91319 10.728 11.0455 10.333V7.42005C11.0455 5.9029 9.76285 4.67201 8.18187 4.67201C6.60089 4.67201 5.31822 5.9029 5.31822 7.42005V17.6613C6.32766 18.0036 7.05431 18.8589 7.19989 19.8769C7.34665 20.8948 6.88847 21.9059 6.01386 22.4978C5.13806 23.0898 3.99141 23.1642 3.04162 22.6902C2.09184 22.2162 1.49644 21.2727 1.50002 20.2444ZM18.6819 3.75614C18.6819 4.12712 18.9146 4.46031 19.2714 4.6023C19.6281 4.74429 20.0386 4.66528 20.3118 4.40421C20.5838 4.142 20.6662 3.74811 20.5182 3.40577C20.3703 3.0634 20.023 2.84013 19.6365 2.84013C19.1091 2.84013 18.6819 3.25003 18.6819 3.75614ZM12.9546 12.9163C12.9546 12.5453 12.7219 12.2121 12.3652 12.0701C12.0084 11.9281 11.598 12.0072 11.3247 12.2682C11.0527 12.5304 10.9703 12.9243 11.1183 13.2667C11.2663 13.609 11.6135 13.8323 12.0001 13.8323C12.253 13.8323 12.4964 13.7361 12.6754 13.5644C12.8544 13.3926 12.9546 13.159 12.9546 12.9163ZM3.40912 20.2444C3.40912 20.6154 3.64179 20.9486 3.99855 21.0906C4.35533 21.2326 4.76577 21.1536 5.039 20.8925C5.31104 20.6303 5.39339 20.2364 5.24542 19.8941C5.09746 19.5517 4.75025 19.3284 4.36366 19.3284C3.83626 19.3284 3.40912 19.7383 3.40912 20.2444Z" fill="#FF782E"></path>
</svg>